<mxfile host="65bd71144e">
    <diagram id="PmDBchNoVxk36q3MygpE" name="Page-1">
        <mxGraphModel dx="1295" dy="926" grid="1" gridSize="10" guides="1" tooltips="1" connect="1" arrows="1" fold="1" page="1" pageScale="1" pageWidth="850" pageHeight="1100" math="0" shadow="0">
            <root>
                <mxCell id="0"/>
                <mxCell id="1" parent="0"/>
                <mxCell id="143" value="" style="rounded=0;whiteSpace=wrap;html=1;fillColor=#CCCCCC;" vertex="1" parent="1">
                    <mxGeometry x="160" y="40" width="160" height="180" as="geometry"/>
                </mxCell>
                <mxCell id="144" style="edgeStyle=none;html=1;exitX=1;exitY=0.25;exitDx=0;exitDy=0;entryX=0;entryY=0.5;entryDx=0;entryDy=0;strokeWidth=1;endArrow=none;endFill=0;startArrow=classic;startFill=1;dashed=1;" edge="1" parent="1" source="136" target="138">
                    <mxGeometry relative="1" as="geometry"/>
                </mxCell>
                <mxCell id="145" style="edgeStyle=none;html=1;exitX=1;exitY=0.5;exitDx=0;exitDy=0;dashed=1;strokeWidth=1;startArrow=classic;startFill=1;endArrow=classic;endFill=1;" edge="1" parent="1" source="136" target="139">
                    <mxGeometry relative="1" as="geometry"/>
                </mxCell>
                <mxCell id="146" style="edgeStyle=none;html=1;exitX=1;exitY=0.75;exitDx=0;exitDy=0;entryX=0;entryY=0.5;entryDx=0;entryDy=0;dashed=1;strokeWidth=1;startArrow=none;startFill=0;endArrow=classic;endFill=1;" edge="1" parent="1" source="136" target="140">
                    <mxGeometry relative="1" as="geometry"/>
                </mxCell>
                <mxCell id="136" value="" style="shape=image;verticalLabelPosition=bottom;labelBackgroundColor=default;verticalAlign=top;aspect=fixed;imageAspect=0;image=data:image/png,iVBORw0KGgoAAAANSUhEUgAABzsAAAnhCAYAAADKI52qAAAACXBIWXMAADXTAAA10wEMIUN3AAAgAElEQVR4nOzd/VFdV7I34O6bANwIwBEIRwATgbgRiDeCIQRlcHUjEIrAmgiEIhCKwCgCQwT91paXZo5lIb7Ox1p7P08V5bJn/rC7VcXZ57e7O6sqAAAAYJKZhxFxeEcxTrZUpJuIuLrjf7uuqust/XsAAADQOWEnAADAjHwXVu5HxNHKf91R+2ffTP+/gxn813+ZQtCVv7/+7u+vWoAawlIAAIB5EXYCAAB0LjNXQ8tvgeXqP5tLaLltqyHpZfvrv6dKq+qyi39LAAAA7iTsBAAA2LHMPFoJL1f/KsTsw5eVadHrlUD0pqruWrcLAADAFgg7AQAANmxlMvPbitnVUHNP/Yd328LP6+9+rqrqZub/7QAAADsl7AQAAFiTzDxZCTG/BZrH6rt4H1dC0Kt2N9REKAAAwBoIOwEAAB6phZrfpjRPrJvlib6tx72M/0yCCkEBAAAeQdgJAABwh8w8XJnS/LaG9oV6sWGfV6ZAL9sk6LWiAwAA/J2wEwAA4M9g8+i7YNM9TXpyuxJ+XrUpUAEoAACweMJOAABgcVYmNk/aX93VZEQCUAAAYPGEnQAAwKxl5v5KsHliYpOZu10JPy+r6lLDAQCAORN2AgAAs9KmNleDTTc2WbrP3wWgpj8BAIDZEHYCAABDa7c2T1Z+TG3Cz31p4edlW317pV4AAMCohJ0AAMBQhJuwdrcr4eel8BMAABiJsBMAAOiacBO2bgo/36+En9beAgAA3RJ2AgAAXcnM/Yg4XQk3D3QIdurb2tv3Lfy80Q4AAKAXwk4AAGDnMvNkJeB8oSPQtc8t+Hxv5S0AALBrwk4AAGDrMvOwBZunVtPC0FZX3r439QkAAGybsBMAANiKdnvzzPQmzNo09XnR1t2a+gQAADZO2AkAAGxMZp626c1T05uwOF9W7ny+134AAGAThJ0AAMDaZOb+Srj5UmWBxrpbAABgI4SdAADAs7T7m99ubwo4gYf4Vws/BZ8AAMCzCDsBAIBHWwk4z9zfBJ5J8AkAADyZsBMAAHgQASewBYJPAADgUYSdAADAnVZucE4B57FKAVsk+AQAAO4l7AQAAP4mM89ayOkGJ9CDdy30fK8bAADAKmEnAADwVWaetoBz+tlTFaBDt23a801VXWkQAAAg7AQAgAVrdzjPW8B54M8CMJAvEXEx/VTVtcYBAMAyCTsBAGBhVu5wTiHnC/0HZuBjCz7d9wQAgIURdgIAwEJk5klETLc4X+k5MFPW3AIAwMIIOwEAYMbamtqz9mNNLbAk05rbN23NrWlPAACYKWEnAADMUGaetoDzpf4CxLsWel4qBQAAzIuwEwAAZsIUJ8C9THsCAMDMCDsBAGBwbnECPMk7tz0BAGB8wk4AABhQZu5HxLSq9rUpToBn+dxCzwtlBACA8Qg7AQBgIG1V7Xmb5NzTO4C1uV1ZcXutrAAAMAZhJwAADKCtqp1Czpf6BbBx71roeanUAADQN2EnAAB0LDPPrKoF2JmPLfS04hYAADol7AQAgM60e5zn7ceqWoDd+7Ky4vZGPwAAoB/CTgAA6ES7xzlNcb7SE4AuTXc9pynPN+56AgBAH4SdAACwY+5xAgxpuuv5WugJAAC7JewEAIAdaSHnNMl5rAcAw/rYQs9LLQQAgO0TdgIAwJZl5lkLOQ/UHmA2hJ4AALADwk4AANgSISfAInxpoeeFdgMAwOYJOwEAYMOEnACLJPQEAIAtEHYCAMAGZOZ+REwh57mQE2DRhJ4AALBBwk4AAFijFnKet589tQWgEXoCAMAGCDsBAGBNMvO8rasVcgJwF6EnAACskbATAACeyU1OAJ5A6AkAAGsg7AQAgCcScgKwBkJPAAB4BmEnAAA8kpATgA342ELPS8UFAICHE3YCAMADZeZJCzmP1QyADRF6AgDAIwg7AQDgHkJOAHbgXxFxXlXXig8AAHcTdgIAwB0y87CFnK/UCIAdeddCzxsNAACAvxN2AgDAdzJzv4Wc/1QbADpwGxFvph+hJwAA/JWwEwAAVmTmFHKeR8SeugDQmds25XmhMQAA8CdhJwAA/BlynrapmQP1AKBzn1voealRAAAsnbATAIBFy8yTtrL2eOm1AGA4HyPirKqutQ4AgKX6L50HAGCJprucmTmtAfwg6ARgUNPvr98z8027Nw0AAItjshMAgMVxlxOAGXLPEwCARRJ2AgCwGG1l7YW7nADMmHueAAAsirATAIDZy8zDFnJaVwvAUrxroeeNjgMAMGdudgIAMFvtLue0svZ3QScAC/MqIq4z81zjAQCYM5OdAADMUmaeRsQbK2sBwGpbAADmS9gJAMCstJW1U8j5UmcB4C+stgUAYHassQUAYDbaytorQScA/JDVtgAAzI7JTgAAhpeZJ22a84VuAsCDfGxTnlfKBQDAyEx2AgAwrMzcz8wp5Pwg6ASARzmOiE/TVoTp96nSAQAwKpOdAAAMKTNPI+IiIvZ0EACe5UtEnFXVpTICADAak50AAAwlMw8z831E/CboBIC1OJi2JGTmhSlPAABGI+wEAGAYmXkeEdNtsZe6BgBr9yoirtv2BAAAGII1tgAAdG+a5mwra491CwC24l9tte2NcgMA0DOTnQAAdG1lmlPQCQDb89KUJwAAIzDZCQBAl0xzAkA3PrYpz2stAQCgNyY7AQDojmlOAOjK9Pv4ypQnAAA9MtkJAEA3THMCQPfc8gQAoCsmOwEA6IJpTgAYglueAAB0xWQnAAA7ZZoTAIZlyhMAgJ0z2QkAwM60qRDTnAAwppftlueJ/gEAsCvCTgAAti4z9zPzfUT8FhF7OgAAwzqIiA+Z+Wb6/a6NAABsmzW2AABsVZv+uGhfjgIA8/G5rbW90lMAALbFZCcAAFuTma+n6Q9BJwDM0ouI+JSZ59oLAMC2mOwEAGDjMvMwIt63L0EBgPn7GBGnVXWj1wAAbJLJTgAANiozzyLiStAJAItyHBHXmXmq7QAAbJKwEwCAjcjM/cycbnO+jYg9VQaAxZl+//+WmW+0HgCATbHGFgCAtcvMo7a21m1OAGDyua21vVYNAADWyWQnAABrlZnnEfFJ0AkArJjW2V+19fYAALA2JjsBAFiLaW1tRExra1+qKADwE+8i4ryqbhQJAIDnEnYCAPBs1tYCAI80rbU9q6orhQMA4DmssQUA4FmsrQUAnmBaa3tprS0AAM9lshMAgCexthYAWJP/q6pzxQQA4CmEnQAAPFpbW3vRpjIAAJ5rWmt7WlXXKgkAwGNYYwsAwKO0dXOXgk4AYI2mzxVXmXmiqAAAPIawEwCAB8vMNxHxNiL2VA0AWLPp88WHzHytsAAAPJQ1tgAA3Kvd5zTNCQBsy78i4qyqblQcAICfMdkJAMBPtfuc14JOAGCLXk4vWrXPIQAAcCdhJwAAd2r3OT9ZWwsA7MCLFnieKj4AAHcRdgIA8EOZedHucwIA7Mr0wtVv7ngCAHAXNzsBAPgL9zkBgE654wkAwN+Y7AQA4N/aXawrQScA0KFvdzwPNQcAgG+EnQAAfNXuc04TnQcqAgB0anoh66q9oAUAAMJOAAC+Bp2v233OPeUAADo3fV751F7UAgBg4dzsBABYsHaf801EvPLnAAAY0LuqEnoCACyYsBMAYKFa0HnpPicAMLh/RcRZVd1oJADA8lhjCwCwQO3O1ZWgEwCYgZfTC1yZeaiZAADLI+wEAFiYzDxtE50Heg8AzMT0AtdVe6ELAIAFEXYCACxIZk43rX6LiD19BwBmZq9NeLrhCQCwIMJOAICFyMw3EfFWvwGAGZsCz7cCTwCA5ciq0m4AgBnLzP2ImILOV/oMACzIu6oSegIAzJywEwBgxlrQednuWAEALM27iDivqhudBwCYJ2EnAMBMZeZhRLwXdAIAC/c5Ik4EngAA8+RmJwDADGXmUURcCToBAL5+HrpsL4IBADAzwk4AgJnJzJO2unZPbwEAvpoCz6v2QhgAADMi7AQAmJHMPIuID4JOAIC/2WsTngJPAIAZEXYCAMxECzrf6icAwJ2mwPNT+9wEAMAMCDsBAGYgM98IOgEAHuytwBMAYB6EnQAAg8vMi4j4pz4CADzKFHi+VjIAgLFlVWkhAMCgWtD5Sv8AAJ7sXVWZ8gQAGJSwEwBgQJm5HxFT0PlS/wAAnk3gCQAwKGEnAMBgWtB5GREv9A4AYG0EngAAAxJ2AgAMRNAJALBRHyPitKpulBkAYAzCTgCAQQg6AQC24nNEnAg8AQDG8F/6BADQP0EnAMDWTJ+3LtvnLwAAOifsBADoXGYeRcSVoBMAYGsEngAAg7DGFgCgYy3onCY69/QJAGDrrLQFAOicyU4AgE4JOgEAds6EJwBA54SdAAAdEnQCAHRD4AkA0DFhJwBAZwSdAADdEXgCAHRK2AkA0BFBJwBAtwSeAAAdEnYCAHRC0AkA0D2BJwBAZ4SdAAAdEHQCAAxD4AkA0BFhJwDAjgk6AQCGI/AEAOiEsBMAYIcEnQAAwxJ4AgB0QNgJALAjgk4AgOEJPAEAdiyrSg8AALasfSF2FREHag8AMLzPEXFSVTdaCQCwXSY7AQC2rAWdl4JOAIDZMOEJALAjwk4AgC1aCTpfqDsAwKwIPAEAdkDYCQCwJYJOAIDZmz7nXWgzAMD2CDsBALZA0AkAsBgvM1PgCQCwJcJOAIDtuBB0AgAsxiuBJwDAdgg7AQA2rH3R9VKdAQAWReAJALAFwk4AgA1qX3C9UmMAgEWaAs9zrQcA2BxhJwDAhmTma0EnAMDi/W9mni29CAAAm5JVpbgAAGvWvtB6q64AADT/r6qstQUAWDNhJwDAmgk6AQC4w69VdaU4AADrI+wEAFijzDyKiE9qCgDAD9xGxInAEwBgfdzsBABYkxZ0XqonAAB32Js+L2bmoQIBAKyHsBMAYA3aF1aX7QssAAC4y/R58X1m7qsQAMDzCTsBAJ6pfVH1XtAJAMADvWgTngJPAIBnEnYCADzfZfvCCgAAHmr6/PhGtQAAnkfYCQDwDJl5IegEAOCJXrXPkwAAPJGwEwDgiTJzehP/lfoBAPAMU+B5poAAAE+TVaV0AACP1L6QeqtuAACsyf9U1XvFBAB4HGEnAMAjZeZJRHxQNwAA1ug2Ik6q6kpRAQAeTtgJAPAImXkUEZcRsaduAACs2RR4HlbVjcICADyMm50AAA+UmfsR8V7QCQDAhkyfMy/b504AAB5A2AkA8HDTROeBegEAsEEvIuJCgQEAHkbYCQDwAJl50b54AgCATXuZmW9UGQDgfsJOAIB7ZOZ5RLxSJwAAtuifmXmm4AAAP5dVpUQAAHfIzNOI+E19AADYkV+r6krxAQB+TNgJAHCHzDxqdzr31AgAgB25jYjDqrrRAACAv7PGFgDgBzJzPyLeCzoBANix6fPoZft8CgDAd4SdAAA/NgWdB2oDAEAHXkTEG40AAPg7YScAwHcy8yIijtUFAICOvMrMcw0BAPgrNzsBAFZk5llEvFUTAAA69Y+qutQcAIA/CTsBAJrMPIqIT+oBAEDHbiPiqKquNQkAwBpbAICvMnO/3ekEAICe7U2fW9vnVwCAxRN2AgD8aQo6D9QCAIABvIiINxoFACDsBACYpjqnL4qOVQIAgIG8ysxzDQMAls7NTgBg0TLzNCJ+W3odAAAY1q9VdaV9AMBSCTsBgMXKzKOIuGx3jwAAYES3EXFYVTe6BwAskTW2AMAiZeZ+RFwIOgEAGNxeuz8PALBIwk4AYKmmO50vdB8AgBk4bnfoAQAWxxpbAGBxMvMsIt7qPAAAM/M/VWXKEwBYFGEnALAo7U7nJ10HAGCGpvudR1V1rbkAwFJYYwsALEa70+lNdwAA5sr9TgBgcYSdAMCSXETEgY4DADBjL9zvBACWRNgJACxCZp5HxEvdBgBgAf6ZmacaDQAsgZudAMDsudMJAMACud8JACyCyU4AYNbanc4LXQYAYGH2fA4GAJZA2AkAzN10r+iFLgMAsEDHmfla4wGAObPGFgCYrXan6DcdBgBg4f5RVZdLLwIAME/CTgBgljLzMCKu2vouAABYsi/tfueNPwUAwNxYYwsAzNV7QScAAHx14H4nADBXwk4AYHbaXSJ3OgEA4D9eZuaZegAAc2ONLQAwK5l5EhEfdBUAAP7mtq2zvVYaAGAuhJ0AwGxk5n6703mgqwAA8EOfq+pIaQCAubDGFgCYkzeCTgAA+KkX7ewDAMAsmOwEAGYhM08j4jfdBACAB/m1qq6UCgAYnbATABheW1873R3a000AAHiQL+1+541yAQAjs8YWAJiDC0EnAAA8ynT+wTpbAGB4JjsBgKFl5nlE/K8uAgDAk/yjqi6VDgAYlbATABhWZh5GxJWpTgAAeDLrbAGAoVljCwCMzPpaAAB4noP2uRoAYEjCTgBgSG197bHuAQDAs73MzFNlBABGZI0tADAc62sBAGDtbiPi0DpbAGA0JjsBgBFZXwsAAOu1Z50tADAiYScAMBTrawEAYGOsswUAhmONLQAwDOtrAQBg46yzBQCGYrITABiJ9bUAALBZ0+ft12oMAIzCZCcAMITMPIuIt7oFAABb8Y+qulRqAKB3wk4AoHuZuR8R16Y6AQBga75ExJF1tgBA76yxBQBGYH0tAABs14F1tgDACEx2AgBdy8zTiPhNlwAAYCd+raorpQcAeiXsBAC61dbXXrW3ygEAgO37XFVH6g4A9MoaWwCgZ68FnQAAsFMvMtM6WwCgWyY7AYAuZeb09vgn3QEAgJ27jYijqrrWCgCgNyY7AYBeXegMAAB0Yc/ncwCgV8JOAKA7mXk+rcvSGQAA6MZxZp5qBwDQG2tsAYCuZOZhRFy1t8cBAIB+fGnrbG/0BADohclOAKA3bwSdAADQpYOIeK01AEBPTHYCAN3IzJOI+KAjAADQtV+r6kqLAIAeCDsBgG5k5nV7WxwAAOjXx6o60R8AoAfW2AIAXcjM14JOAAAYwnFmnmkVANADk50AwM5l5mFEXLnVCQAAw7iNiMOqutEyAGCXTHYCAD14I+gEAIChTJ/fX2sZALBrJjsBgJ3KzOnWzwddAACAIf1SVddaBwDsislOAGDXLnQAAACG5fM8ALBTwk4AYGcy8zwiDnQAAACGdZyZp9oHAOyKNbYAwE5k5n5EXLvVCQAAw/tSVYfaCADsgslOAGBXXgs6AQBgFg4y87VWAgC7YLITANi6zDyKiE8qDwAAs3EbEYdVdaOlAMA2mewEAHbhjaoDAMCs7PmcDwDsgslOAGCrMvMkIj6oOgAAzNKvVXWltQDAtgg7AYCtyszr6aaPqgMAwCx9rKoTrQUAtsUaWwBgazLzXNAJAACzdpyZp1oMAGyLyU4AYCsycz8irtstHwAAYL6+VNWh/gIA22CyEwDYlnNBJwAALMJBZp5pNQCwDSY7AYCNy8zpre4rYScAACzGbUQcVtWNlgMAm2SyEwDYhteCTgAAWJS9tt0FAGCjTHYCABvVpjp/V2UAAFgc050AwMaZ7AQANu1ChQEAYJGm6c43Wg8AbJLJTgBgYzLzJCI+qDAAACzaL1V1vfQiAACbYbITANik16oLAACL57kAANgYk50AwEaY6gQAAFb8WlVXCgIArJvJTgBgU9zmAQAAvvF8AABshLATAFi7zDyLiBcqCwAANMdt+wsAwFpZYwsArF1mXkfEgcoCAAArPlaVwBMAWCuTnQDAWrWpTkEnAADwPdOdAMDamewEANbKVCcAAPATpjsBgLUy2QkArI2pTgAA4B6mOwGAtTLZCQCsjalOAADgAUx3AgBrY7ITAFgLU50AAMADme4EANbGZCcAsBamOgEAgEcw3QkArIXJTgDg2Ux1AgAAj2S6EwBYC5OdAMCzmeoEAACewHQnAPBsJjsBgGcx1QkAADyR6U4A4NlMdgIAz2KqEwAAeAbTnQDAs5jsBACezFQnAADwTKY7AYBnMdkJADyZqU4AAGANTHcCAE9mshMAeJLMPBV0AgAAazBNdx4pJADwFMJOAOCpzlUOAABYE88XAMCTWGMLADxau6nzQeUAAIA1+qWqrhUUAHgMk50AwFO8VjUAAGDNPGcAAI9mshMAeJR2S+eTqgEAABtguhMAeBSTnQDAY7mlAwAAbMqZygIAj2GyEwB4sMw8jIjfVQwAANiQ24g4rKobBQYAHsJkJwDwGKY6AQCATdoz3QkAPIbJTgDgQTJzPyKu25cPAAAAm/Klqg5VFwB4CJOdAMBDnQs6AQCALTjITNOdAMCDmOwEAB4kM6epzgPVAgAAtuBzVR0pNABwH5OdAMC92lvVgk4AAGBbXmTmiWoDAPcRdgIAD2GFFAAAsG2eQwCAe1ljCwD8VHub+oMqAQAAO/BLVV0rPABwF5OdAMB9vE0NAADsyrnKAwA/Y7ITALhTZh5GxO8qBAAA7MhtRBxW1Y0GAAA/YrITAPgZU50AAMAu7UXEqQ4AAHcx2QkA3Ckzb9qXCwAAALvypaoOVR8A+BGTnQDAD2XmmaATAADowEFmnmgEAPAjwk4A4C7nKgMAAHTC8wkA8EPW2AIAf5OZRxHxSWUAAICO/FJV1xoCAKwy2QkA/Ii3pgEAgN6c6QgA8D2TnQDAX2TmfkRcu9cJAAB05ktVHWoKALDKZCcA8L0zQScAANChg8w03QkA/IXJTgDgLzJzmuo8UBUAAKBDH6vqRGMAgG9MdgIA/5aZJ4JOAACgY8eZaZUtAPBvwk4AYJWVUAAAQO/OdQgA+MYaWwDgq8zcj4g/VAMAAOjcbVXtaxIAECY7AYAVpjoBAIAR7GXmqU4BACHsBABWCDsBAIBReH4BAL6yxhYAmFbYHkXEJ5UAAAAG8ktVXWsYACybyU4AYHKuCgAAwGBMdwIAJjsBgK+TnTfT3RulAAAABvKlqg41DACWzWQnACxcZp4JOgEAgAEdZOaJxgHAsgk7AQCrnwAAgFF5ngGAhbPGFgAWLDOnlU+/+zMAAAAM6jYiDqvqRgMBYJlMdgLAsp0uvQAAAMDQ9jzXAMCyCTsBYNnOl14AAABgeMJOAFgwa2wBYKEy8ygiPuk/AAAwA79U1bVGAsDymOwEgOU603sAAGAmTHcCwEKZ7ASAhcrMm3bfBgAAYHSfq+pIFwFgeUx2AsACZeapoBMAAJiRF+1UBwCwMMJOAFgmK54AAIC5caoDABbIGlsAWJjM3I+Ia5OdAADAzHypqkNNBYBlMdkJAMtjhS0AADBHB1bZAsDyCDsBYHmssAUAAObKKlsAWBhrbAFgQdoK2z/0HAAAmKnbqtrXXABYDpOdALAspjoBAIA528tMzz0AsCDCTgBYFg/9AADA3HnuAYAFscYWABbCClsAAGAhrLIFgAUx2QkAy+HtZgAAYAmssgWABRF2AsByeNgHAACWwvMPACyENbYAsABW2AIAAAtjlS0ALITJTgBYBm81AwAASzKtsj3RcQCYP2EnACyDsBMAAFgaz0EAsADW2ALAAmSmX/gAAMDSfKmqQ10HgHkz2QkAM5eZ3mYGAACW6CAzj3QeAOZN2AkA8yfsBAAAlupM5wFg3qyxBYCZy8ybiNjTZwAAYIE+V5XpTgCYMZOdADBjmXki6AQAABbsRWa62wkAMybsBIB5s8IWAABYOs9FADBjwk4AmDcP9QAAwNJ5LgKAGXOzEwBmKjOnuzSf9BcAACD+u6pulAEA5sdkJwDM14neAgAAfGW6EwBmStgJAPPlYR4AAOBPXgYFgJmyxhYAZigz9yPiD70FAAD46raq9pUCAObHZCcAzJOpTgAAgP/Yy8wj9QCA+RF2AsA8WdEEAADwV14KBYAZssYWAGYoM2+mN5f1FgAA4N8+V5XpTgCYGZOdADAzbTWToBMAAOCvXmSmu50AMDPCTgCYHytsAQAAfswqWwCYGWEnAMyPh3cAAIAf83IoAMyMm50AMCNtJdMfegoAAPBDt1VllS0AzIjJTgCYF28pAwAA3G0vM4/UBwDmQ9gJAPMi7AQAAPg5z00AMCPCTgCYFw/tAAAAP3eqPgAwH252AsBMZOZhRPyunwAAAD9XValEADAPJjsBYD5MdQIAADxAZnp+AoCZEHYCwHx4WAcAAHgYz08AMBPCTgCYDw/rAAAAD+P5CQBmws1OAJgB9zoBAAAex91OAJgHk50AMA/eSgYAAHgEdzsBYB6EnQAwDx7SAQAAHsdzFADMgLATAObBQzoAAMDjeI4CgBlwsxMABudeJwAAwNO42wkA4zPZCQDj8zYyAADAE7jbCQDjE3YCwPg8nAMAADyN5ykAGJywEwDGd6SHAAAATyLsBIDBudkJAAPLzP2I+EMPAQAAnsbdTgAYm8lOABibt5ABAACeITNtywGAgQk7AWBswk4AAIDn8VwFAAMTdgLA2LyBDAAA8DzCTgAYmJudADCwzPSLHAAA4Hm+VNWhGgLAmEx2AsCgMtPbxwAAAM93kJn76ggAYxJ2AsC4rLAFAABYDy+TAsCghJ0AMC5hJwAAwHp4vgKAQQk7AWBc3jwGAABYD89XADCorCq9A4DBtHsyf+gbAADAelRVKiUAjMdkJwCMyYolAACANcpMz1kAMCBhJwCMyYolAACA9RJ2AsCAhJ0AMCYP4QAAAOvlOQsABiTsBIAxeQgHAABYL89ZADCgrCp9A4CBZOZ+RPyhZwAAAOtVVamkADAWk50AMB5vGwMAAGxAZnreAoDBCDsBYDwnegYAALARwk4AGIywEwDG4+EbAABgMzxvAcBghJ0AMB4P3wAAAJvheQsABpNVpWcAMIjM3I+IP/QLAABgM6oqlRYAxmGyEwDG4i1jAACADcrMQ/UFgHEIOwFgLMJOAACAzfLcBQADEXYCwFg8dAMAAGyW5y4AGIiwEwDGYp0SAADAZgk7AWAgwk4AGMuxfgEAAGyUl0wBYCBZVfoFAAPIzOmB+3e9AgAA2KyqSiUGgDGY7ASAcbaRM9cAACAASURBVHi7GAAAYAsy80SdAWAMwk4AGIeHbQAAgO3wsikADELYCQDj8LANAACwHZ6/AGAQwk4AGIeHbQAAgO2wWQcABiHsBIBxHOsVAADAVuwrMwCMIatKqwCgc5k5TXX+rk8AAADbUVWp1ADQP5OdADAGK2wBAAC2KDOP1BsA+ifsBIAxuBcDAACwXV46BYABCDsBYAzuxQAAAGyXyU4AGICwEwDG4CEbAABgu0x2AsAAhJ0AMAYP2QAAANvlOQwABpBVpU8A0LnM9AsbAABgu26rykkRAOicyU4A6FxmWmELAACwfXtqDgD9E3YCQP+8SQwAALADmXmi7gDQN2EnAPTPwzUAAMBuePkUADon7ASA/nm4BgAA2A1nRQCgc8JOAOifh2sAAIDd8PIpAHRO2AkA/fNwDQAAsBtePgWAzmVV6REAdCwz/bIGAADYjS9Vdaj2ANAvYScAdCwzp6nOP/QIAABgN6oqlR4A+mWNLQD0zcokAACAHcpMk50A0DFhJwD0zb1OAACA3RJ2AkDHhJ0A0DeTnQAAALvlJVQA6JiwEwAAAADgbl5CBYCOCTsBoG8n+gMAALBTJjsBoGPCTgAAAACAu5nsBICOCTsBoG/H+gMAAAAA8GNZVUoDAJ3KTL+oAQAAduu2qqyyBYBOmewEgE5l5qHeAAAA7NyeFgBAv4SdANAvYScAAEAHvIwKAP0SdgIAAAAA/JywEwA6JewEgH6d6A0AAAAAwN2EnQAAAAAAP+dlVADolLATAPplTRIAAAAAwE8IOwGgX8JOAACAPuzrAwD0SdgJAAAAAPBzR+oDAH0SdgJAvzxMAwAAAAD8hLATAPq1pzcAAABdsMYWADqVVaU3ANChzPRLGgAAoBNVlXoBAP0x2QkAHcrMQ30BAAAAAPg5YScA9EnYCQAA0JHMtMoWADok7AQAAAAAuN+RGgFAf4SdANAnbwwDAAAAANxD2AkAffLGMAAAAADAPYSdAAAAAAD3O1QjAOiPsBMAAAAA4H7CTgDokLATAPrkIRoAAAAA4B7CTgDok7ATAAAAAOAewk4AAAAAgPsdqREA9EfYCQAAAABwv301AoD+CDsBAAAAAACAIQk7AaBPx/oCAAAAAPBzwk4AAAAAAABgSFlVOgcAnclMv6ABAAA6U1WpJwDQF5OdAAAAAAAAwJCEnQAAAAAAAMCQhJ0A0JnMPNITAAAAAID7CTsBoD/7egIAAAAAcD9hJwAAAAAAADAkYScAAAAAwAM4OwIA/RF2AgAAAAA8jLMjANAZYScAAAAAAAAwJGEnAAAAAAAAMCRhJwAAAAAAADAkYScA9OdETwAAAAAA7ifsBAAAAAAAAIYk7AQAAAAAAACGJOwEAAAAAAAAhiTsBAAAAAAAAIYk7AQAAAAAAACGJOwEAAAAAAAAhiTsBAAAAAAAAIYk7AQAAAAAAACGJOwEAAAAAAAAhiTsBAAAAAB4mCN1AoC+CDsBAAAAAB5mX50AoC/CTgAAAACAh7lUJwDoi7ATAAAAAAAAGJKwEwAAAAAAABiSsBMAAAAAAAAYkrATAAAAAAAAGJKwEwAAAAAAABiSsBMAAAAAAAAYkrATAAAAAAAAGJKwEwD6c60nAAAAAAD3E3YCQH+EnQAAAAAADyDsBAAAAAAAAIYk7AQAAAAAAACGJOwEAAAAAAAAhiTsBAAAAAB4mGt1AoC+CDsBAAAAAB6gqoSdANAZYScAAAAAAAAwJGEnAPTHm8IAAAAAAA+QVaVOANCZzPQLGgAAoDNVlXoCAH0x2QkAAAAAAAAMSdgJAAAAAHC/WzUCgP4IOwEAAAAA7nelRgDQH2EnAPTJG8MAAAAAAPcQdgJAn7wxDAAA/H/27vaojjRJG3DmOgBrgU5bIDzQeS0Y1oJBHqg9kCx4JQsWPJAsaLCgwQKBBc2xIDeq56GblvjmfNRTdV0RCsXM/JpMRUDVXZkJAMAjhJ0AAAAAAABAl4SdAAAAAACPs4EHAEZI2AkAAAAA8LhrNQKA8RF2AsA4+WIYAAAAAOARwk4AGCdfDAMAAAAAPELYCQAAAADwOBt4AGCEhJ0AAAAAAI+zgQcARkjYCQDjdKovAAAAAAAPE3YCAAAAADzOZCcAjJCwEwAAAADgEVXlZicAjFBWlb4AwMhk5n5E/KEvAAAA41BVqRUAMD7CTgAYqcz0QxoAAGAkhJ0AME7W2AIAAAAAPOxMfQBgnISdADBeF3oDAAAAAHA/YScAjNe13gAAAAAA3E/YCQAAAADwsFP1AYBxEnYCwHid6w0AAAAAwP2EnQAwXtbYAgAAjIPnMwAYKWEnAIyXh2kAAIBxsHkHAEZK2AkA4+VhGgAAAADgAcJOAAAAAICH+RgVAEYqq0pvAGCEMnM/Iv7QGwAAgN2qqtQCABgnk50AMFJV5WYnAADA7l3pAQCMl7ATAMbNQzUAAMBuXao/AIyXsBMAxs1DNQAAwG7ZugMAIybsBIBx81ANAACwW+fqDwDjJewEgHHzUA0AAAAAcA9hJwAAAADA/U7VBgDGS9gJAOPmoRoAAAAA4B7CTgAAAACAe1SVj1ABYMSyqvQHAEYsM/2wBgAA2JGqSrUHgPEy2QkAAAAAcLczdQGAcRN2AsD4ebgGAAAAALiDsBMAAAAA4G7udQLAyAk7AWD8PFwDAAAAANxB2AkA43etRwAAADvh41MAGDlhJwCM37keAQAA7ISPTwFg5LKq9AgARiwzFxHxXY8AAAC2q6pSyQFg3Ex2AsDIVdWlHgEAAGzdlZIDwPgJOwGgDxf6BAAAsFU+PAWADgg7AaAP7sQAAABs17l6A8D4CTsBoA+n+gQAALBVJjsBoAPCTgDog4dsAACA7TLZCQAdEHYCQB+EnQAAANvlOQwAOpBVpU8AMHKZuR8Rf+gTAADAdlRVKjUAjJ/JTgDoQFVdR8RKrwAAALbiTJkBoA/CTgDoh3sxAAAA23GtzgDQB2EnAPRD2AkAALAdnr8AoBPCTgDox6VeAQAAbIWwEwA6IewEgH542AYAANgOH5sCQCeyqvQKADqQmfsR8YdeAQAAbFZVpRIDQB9MdgJAJ6rqOiJW+gUAALBRZ8oLAP0QdgJAX6yyBQAA2CwrbAGgI8JOAOjLqX4BAABslLATADoi7ASAvnjoBgAA2CwfmQJAR4SdANAXa2wBAAA2y3MXAHQkq0q/AKAjmemHNwAAwGZcVdVCbQGgHyY7AaA/F3oGAACwEU6HAEBnhJ0A0B8rlQAAADbDvU4A6IywEwD6I+wEAADYDM9bANAZYScA9MfDNwAAwGZ43gKAzmRV6RkAdCYz/QAHAABYr1VV7aspAPTFZCcA9OlC3wAAANbKVCcAdEjYCQB98hAOAACwXqfqCQD9EXYCQJ+EnQAAAOvlOQsAOiTsBIA+eQgHAABYL89ZANChrCp9A4AOZaYf4gAAAOuxqqp9tQSA/pjsBIB+XegdAADAWrjXCQCdEnYCQL88jAMAAKyHFbYA0ClhJwD0y8M4AADAeviYFAA65WYnAHQqMxcR8V3/AAAAXqeqUgkBoE8mOwGgU1V1GREr/QMAAHiVC+UDgH4JOwGgb1YtAQAAvI7nKgDomLATAPrmbicAAMDreK4CgI4JOwGgb75ABgAAeB3PVQDQsawq/QOAjmWmH+YAAAAvc1VVC7UDgH6Z7ASA/p3pIQAAwItYYQsAnRN2AkD/PJwDAAC8jBW2ANA5YScA9M/DOQAAwMt4ngKAzrnZCQCdy8z9iPhDHwEAAJ5lVVX7SgYAfTPZCQCdq6rriLjQRwAAgGcx1QkAEyDsBIBp8JAOAADwPJ6jAGAChJ0AMA0e0gEAAJ7HcxQATICbnQAwAe52AgAAPIt7nQAwESY7AWAC3O0EAAB4FlOdADARwk4AmA4P6wAAAE/j+QkAJkLYCQDT4WEdAADgaTw/AcBEuNkJABPhbicAAMCTuNcJABNishMAJqLd7TzTTwAAgAd9VR4AmA5hJwBMi1VMAAAAD/PcBAATIuwEgGnxhTIAAMDDhJ0AMCFudgLAxGTmsM52T18BAAB+clFVB8oCANNhshMApsdXygAAAHfzvAQAEyPsBIDpscoWAADgbsJOAJgYa2wBYGIycxER3/UVAADgn6oqlQQApsVkJwBMTFVdDndo9BUAAOAfvikHAEyPsBMApslqJgAAgH/ynAQAEyTsBIBpcrcTAADgnzwnAcAEudkJABOVmdcRsae/AAAAcVVVC2UAgOkx2QkA02VFEwAAwH+Y6gSAiRJ2AsB0eZgHAAD4Dx+DAsBEWWMLABOVmfsR8Yf+AgAAM7eqqv25FwEApspkJwBMVFUNNzsv9BcAAJg5U50AMGHCTgCYtmP9BQAAZs6JDwCYMGtsAWDCMvMgIn7XYwAAYMb+u22+AQAmyGQnAExYVZ1HxJUeAwAAM3Um6ASAaRN2AsD0WdkEAADMlechAJg4a2wBYOKssgUAAGbsl6q69A8AAKZL2AkAM5CZw9qmPb0GAABm5KKqDjQcAKbNGlsAmAermwAAgLk51nEAmD5hJwDMg7ATAACYG89BADAD1tgCwExYZQsAAMzIVVUtNBwAps9kJwDMh6+aAQCAufD8AwAzIewEgPnwsA8AAMyFe50AMBPW2ALAjFhlCwAAzIAVtgAwIyY7AWBeTHcCAABT57kHAGZE2AkA8+KhHwAAmDorbAFgRqyxBYCZscoWAACYsIuqOtBgAJgPk50AMD+mOwEAgKky1QkAMyPsBID58fAPAABMlY87AWBmrLEFgBnKzMuIeKP3AADAhFhhCwAzZLITAObJ184AAMDU2GIDADNkshMAZigzh6+df9d7AABgQn6pqksNBYB5MdkJADNUVecRcaX3AADARHwTdALAPAk7AWC+Pus9AAAwEU51AMBMWWMLADOVmYuI+K7/AABA51YRsaiqa40EgPkx2QkAM9VWPJ3pPwAA0Lmvgk4AmC9hJwDM2/HcCwAAAHTPClsAmDFrbAFgxjJzPyKGCc89/w4AAIAOXVXVQuMAYL5MdgLAjLVVT76CBgAAeuV5BgBmzmQnAMxcZi4j4re51wEAAOjSL1V1qXUAMF8mOwFg5qrqdFj9NPc6AAAA3TkTdAIAwk4AYHCsCgAAQGc8xwAA1tgCAH+usl1ExHelAAAAOrGKiEVVXWsYAMybyU4AINrqp28qAQAAdOKroBMACGEnAHCLFVAAAEAvPusUABDW2AIAt2Xm8GX0nqIAAAAjdlFVBxoEAITJTgDgB6Y7AQCAsTPVCQD8xWQnAPCXzFxExHcVAQAARmoVEQv3OgGAGyY7AYC/VNVlRJypCAAAMFJfBZ0AwG3CTgDgR1ZCAQAAY+V5BQD4B2tsAYCfZOYw4flGZQAAgBG5qKoDDQEAbjPZCQDc5VhVAACAkTHVCQD8xGQnAPCTzFxExHeVAQAARmIVEQv3OgGAH5nsBAB+UlXDGtsTlQEAAEbiWNAJANzFZCcAcKfMXEbEb6oDAACMwC/to0wAgH8w2QkA3KmqTiPiSnUAAIAdOxN0AgD3EXYCAA/5qDoAAMCOfdYAAOA+1tgCAPfKzP2IGL6g3lMlAABgB66qaqHwAMB9THYCAPeqquuIOFYhAABgR2ybAQAeZLITAHhQZg5fUX9XJQAAYMtWEbFoH2ECANzJZCcA8KCqGtbYnqgSAACwZceCTgDgMSY7AYBHZeYyIn5TKQAAYIt+aR9fAgDcy2QnAPCoqjqNiDOVAgAAtuRE0AkAPIWwEwB4qmOVAgAAtsTzBwDwJNbYAgBPlpnDl9VvVAwAANigs6paKjAA8BQmOwGA5/isWgAAwIaZ6gQAnsxkJwDwZJm5HxHDdOeeqgEAABtwVVULhQUAnspkJwDwZFV1bboTAADYoI+KCwA8h8lOAOBZ2nTnH6oGAACs2aqq9hUVAHgOk50AwLO06c4TVQMAANbMFhkA4NlMdgIAz5aZww2d7yoHAACsySoiFu3jSgCAJzPZCQA8W1Vdmu4EAADW6LOgEwB4CZOdAMCLmO4EAADW6L+FnQDAS5jsBABepE13nqkeAADwSieCTgDgpUx2AgAvlpnLiPhNBQEAgFf4pX1MCQDwbCY7AYAXq6pT050AAMArnAg6AYDXMNkJALyK6U4AAOAVTHUCAK9ishMAeBXTnQAAwAuZ6gQAXs1kJwDwaqY7AQCAFzDVCQC8mslOAODVTHcCAADPZKoTAFgLk50AwFqY7gQAAJ7BVCcAsBYmOwGAtTDdCQAAPJGpTgBgbUx2AgBrY7oTAAB4AlOdAMDamOwEANbGdCcAAPAIU50AwFqZ7AQA1sp0JwAA8ABTnQDAWpnsBADWynQnAABwD1OdAMDamewEANbOdCcAAHAHU50AwNqZ7AQA1q5Nd56oLAAA0HwRdAIAm2CyEwDYiMxcRMR31QUAgNlbRcSiqq7nXggAYP1MdgIAG9G+2jbdCQAAfBZ0AgCbYrITANgY050AADB7pjoBgI0y2QkAbEyb7vykwgAAMFsfBZ0AwCaZ7AQANioz9yNiCD33VBoAAGblqqoWWg4AbJLJTgBgo9pX3J9VGQAAZuejlgMAm2ayEwDYuDbdeR4Rb1QbAABm4aKqDrQaANg0k50AwMa16U5fdQMAwHx80GsAYBtMdgIAW5OZw3TnWxUHAIBJO6uqpRYDANsg7AQAtiYzhxcev6k4AABM2i9VdanFAMA2WGMLAGxNVZ0OX3mrOAAATNaJoBMA2CaTnQDAVmXmIiK+qzoAAEzOKiIW7WY/AMBWmOwEALaqfeX9RdUBAGByPgs6AYBtM9kJAGxdZu5HxBB67qk+AABMwlVVLbQSANg2k50AwNa1r70/qjwAAEzGB60EAHbBZCcAsDOZOUx3vtEBAADo2llVLbUQANgFk50AwC4dqT4AAHTPVCcAsDPCTgBgZ6rqNCK+6QAAAHTrS1Wdax8AsCvW2AIAO5WZi4j4rgsAANCdVUQs2k1+AICdMNkJAOxUVQ13Oz/pAgAAdOeDoBMA2DWTnQDAzmXmfkQMq6/e6AYAAHThoqoOtAoA2DWTnQDAzrWvwT/oBAAAdMPv7wDAKAg7AYBRqKqvEXGmGwAAMHpfqupUmwCAMbDGFgAYjcxcRMR3HQEAgNFaRcTCrU4AYCxMdgIAo1FVlxHxSUcAAGC0Pgg6AYAxMdkJAIxOZg6h5xudAQCAUTmrqqWWAABjYrITABijI10BAIDR+aAlAMDYCDsBgNGpqtOI+KYzAAAwGp+q6lw7AICxscYWABilzNyPiGGd7Z4OAQDATl1FxIFbnQDAGJnsBABGqb1I+ag7AACwc0eCTgBgrEx2AgCjlpnDStt3ugQAADvxraoOlR4AGCthJwAwapm5iIjvugQAAFu3ioiFqU4AYMyssQUARq2qhrudn3QJAAC27oOgEwAYO5OdAEAXMvM8It7qFgAAbMVZVS2VGgAYO2EnANCFzDyIiN91CwAANm5YX3vQtqwAAIyaNbYAQBeqapjs/KJbAACwcR8FnQBAL0x2AgDdyMz9iBhCzze6BgAAG2F9LQDQFWEnANCVzBxevPymawAAsBG/mOoEAHpijS0A0JWqOrXOFgAANuKToBMA6I3JTgCgO9bZAgDA2l1U1YGyAgC9MdkJAHSnqq4j4kjnAABgLVZ+vwYAeiXsBAC6ZJ0tAACszceqOldOAKBH1tgCAN2yzhYAAF7trKqWyggA9ErYCQB0LTOHu0K/6yIAADzbsL72oKoulQ4A6JU1tgBA19q6rU+6CAAAz/ZR0AkA9M5kJwAwCZk5hJ5vdRMAAJ7E+loAYBKEnQDAJLR1tqcRsaejAADwoGF97aKqrpUJAOidNbYAwCS0dbYfdRMAAB51JOgEAKbCZCcAMCmZOUx3vtNVAAC400lVHSkNADAVwk4AYFIycz8iLq2zBQCAn1xFxIGpTgBgSqyxBQAmpb248aU6AAD87FDQCQBMjbATAJicqvoaEV90FgAA/vKp3bkHAJgUa2wBgElq62yH+51vdRgAgJk7q6rl3IsAAEyTsBMAmKzMPGiBp/udAADM1ard6bz0LwAAmCJrbAGAyWpruj7qMAAAM3Yk6AQApkzYCQBMWlV9johvugwAwAx9affsAQAmyxpbAGDy2v3OYcrzjW4DADATF1V1oNkAwNSZ7AQAJq+qriPiUKcBAJiJld9/AYC5EHYCALPQ7nf+qtsAAMzAB3c6AYC5sMYWAJiVzBxuFv1L1wEAmKiTqjrSXABgLoSdAMCsuN8JAMCEXUTEsp1xAACYBWEnADA7mXkQEb/rPAAAEzLc6TywvhYAmBs3OwGA2XG/EwCACToSdAIAcyTsBABmqao+R8Q33QcAYAK+VNVXjQQA5sgaWwBgttr9ztOIeOtfAQAAnbqoqgPNAwDmStgJAMxau985BJ57c68FAADdGe50LqrqWusAgLmyxhYAmLV2v/PD3OsAAECXloJOAGDuhJ0AwOxV1fFw52judQAAoCu/tg/3AABmzRpbAIAmM4d1tu/UAwCAkTupqiNNAgAQdgIA/CUz9yNi+Dr+jaoAADBSF9bXAgD8zRpbAICmvTA6jIiVmgAAMELD76mHgk4AgL8JOwEAbml3jz6oCQAAIzQEnZcaAwDwN2EnAMAPquo4Ir6oCwAAI/K+qk41BADgn9zsBAC4R2Z+jYh/qQ8AADt2UlVHmgAA8DNhJwDAPTJzPyKGr+ffqhEAADtyUVUHig8AcDdrbAEA7lFV1xExfEG/UiMAAHbgKiKWCg8AcD9hJwDAA6rqPCIO1QgAgC0bPrg7bB/gAQBwD2EnAMAjqmpYZftenQAA2KKj9uEdAAAPEHYCADxBVR1HxIlaAQCwBb9W1VeFBgB4XFaVMgEAPFFmDi+d/qVeAABsyElVHSkuAMDTCDsBAJ4hM/cjYlhr+1bdAABYs7OqWioqAMDTCTsBAJ4pMxcRMdxP2lM7AADW5CIillV1raAAAE/nZicAwDNV1eXwIioiVmoHAMAaDL9XHgo6AQCeT9gJAPACVTVMdrqlBADAa63aROelSgIAPJ+wEwDgharqa0S8Vz8AAF7hQ/uQDgCAFxB2AgC8QlUdR8QXNQQA4AXet98nAQB4oawqtQMAeKXMHF5S/VsdAQB4opOqchYBAOCVhJ0AAGuSmcP6sbfqCQDAIwSdAABrIuwEAFiTzNyPiFOBJwAAD7ioqgMFAgBYDzc7AQDWpKquI2IZEVdqCgDAHS7a74sAAKyJsBMAYI1a4HkYESt1BQDgluGDuGX7fREAgDURdgIArFlVnbcv9gWeAABE+73wUNAJALB+wk4AgA1ogeeh2gIAzN6qTXSez70QAACbIOwEANiQqjqNiPfqCwAwW4JOAIANE3YCAGxQVR0LPAEAZuuDoBMAYLOEnQAAGybwBACYpfft90AAADZI2AkAsAXtRdeJWgMAzIKgEwBgS4SdAABbUlVHAk8AgMkTdAIAbJGwEwBgiwSeAACTdiLoBADYLmEnAMCWCTwBACbppP2eBwDAFgk7AQB2QOAJADApgk4AgB3JqlJ7AIAdyczziHir/gAA3RJ0AgDskMlOAIDdWkbEhR4AAHRJ0AkAsGPCTgCAHaqqa4EnAECXBJ0AACMg7AQA2DGBJwBAdwSdAAAjIewEABgBgScAQDcEnQAAIyLsBAAYCYEnAMDoCToBAEZG2AkAMCICTwCA0RJ0AgCMkLATAGBkBJ4AAKMj6AQAGClhJwDACAk8AQBGQ9AJADBiwk4AgJG6FXie6REAwE4IOgEARk7YCQAwYkPgWVVD4HmiTwAAWyXoBADogLATAKAD7UWbwBMAYDsEnQAAnRB2AgB0QuAJALAVgk4AgI4IOwEAOiLwBADYqPeCTgCAvgg7AQA6I/AEANiIIeg8VloAgL4IOwEAOtQCz/d6BwCwFoJOAIBOCTsBADrVXsgJPAEAXm4l6AQA6FtWlRYCAHQsM4cpz//VQwCAZxmCzmVVnSsbAEC/hJ0AABOQmQcRcRoRe/oJAPAoQScAwERYYwsAMAHtRd2yvbgDAOB+F4JOAIDpMNkJADAhbcLza0S80VcAgJ/cBJ3XSgMAMA0mOwEAJqRNKBy0F3kAAPztTNAJADA9wk4AgIlpL/CW7YUeAAARJ1Ul6AQAmCBhJwDABA0v8oYXesOLPf0FAGbuS1Udzb0IAABTJewEAJiw9mLvix4DADP1vqo+aD4AwHQJOwEAJq694HuvzwDAjKxa0Hms6QAA05ZVpcUAADOQmYcRMbzw29NvAGDChqBzuM95rskAANMn7AQAmJHMPIiIU4EnADBRFxFxWFWXGgwAMA/W2AIAzEibcFi0F4EAAFNy1iY6BZ0AADMi7AQAmJmquh5eBEbEN70HACbipKqW7fccAABmRNgJADBDw4vAqhpueH7RfwCgc79W1ZEmAgDMk5udAAAzl5nDy8H/nXsdAIDurCLiqKq+ah0AwHwJOwEAGALPg4g4jYg91QAAOnAVEYftHjkAADNmjS0AANFeFA6B54VqAAAjN/y+ciDoBAAghJ0AANyoqsuIWEbEN0UBAEbqpKqGoPNagwAACGEnAAC3DS8Oq+owIj4pDAAwMu+r6khTAAC4zc1OAADulJlD6HnsjicAsGOrYfuEtbUAANzFZCcAAHeqqq9tra07ngDArrjPCQDAg4SdAADcq71YdMcTANiFkzbRean6AADcR9gJAMCD3PEEAHbgz/ucw+8hig8AwEPc7AQA4Mnc8QQANsx9TgAAnsVkJwAAT9bueB644wkAbMBZRCwEnQAAPIewEwCAZ2l3s5btjhYAwDp8qaqltbUAADyXNbYAALxYZh5FxGdrbQGAFxrW1h617REAAPBswk4AAF4lM4e1tsMLyjcqCQA8w7AW/7BtjQAAgBexxhYAgFdpd7WGwPObSgIATzSsrT0QdAIA8FomOwEANzfNFgAAIABJREFUWJvM/BAR/19FAYB7WFsLAMBaCTsBAFirttb2OCLeqiwAcIu1tQAArJ01tgAArFVba7uMiBOVBQAaa2sBANgIk50AAGxMZh5FxOeI2FNlAJgla2sBANgoYScAABuVmYuI+GqtLQDMzllbW3ut9QAAbIo1tgAAbNSwrm5YWzesr1NpAJiNX6tqKegEAGDTTHYCALA1mTnc8jyOiDeqDgCTdNHW1p5rLwAA22CyEwCAramq04gYpjy/qToATM6wxWEp6AQAYJtMdgIAsBOZeRQRnyNiTwcAoGurNs35VRsBANg2YScAADuTmYu21vadLgBAl761oNNtTgAAdsIaWwAAdqaqLqtquOP5qy4AQFeGac73VXUo6AQAYJdMdgIAMAqZedCmPN/qCACM2lmb5rzUJgAAds1kJwAAo1BV51U1BJ6fdAQARmmY5vx12Mog6AQAYCxMdgIAMDqmPAFgdExzAgAwSiY7AQAYHVOeADAapjkBABg1k50AAIyaKU8A2BnTnAAAjJ7JTgAARs2UJwBsnWlOAAC6YbITAIButCnPzxHxTtcAYCO+RcQHIScAAL0QdgIA0J3M/BARHyNiT/cAYC1WbWXtV+UEAKAn1tgCANCdqhqmOw/a9AkA8DonEbEQdAIA0COTnQAAdC0zD9tq2zc6CQDPctWmOU+VDQCAXpnsBACga20KZZjy/KKTAPBkn6pqIegEAKB3JjsBAJiMzBxCz+OIeKurAHCnszbNeak8AABMgclOAAAmo6rOq2oIPH+NiJXOAsBfhp+L/1NVS0EnAABTIuwEAGByqmq44bmIiBPdBYA/V70v2up3AACYFGtsAQCYtMxcRsRnq20BmKFhZe2HYfOB5gMAMFUmOwEAmLSqOrXaFoCZGX7evW8rawWdAABMmslOAABmIzP325Tnv3UdgIn6NPysq6prDQYAYA6EnQAAzE5mHrTQ853uAzARw8rao6q61FAAAObEGlsAAGZnWOk3rPYbVvxFxJV/AQB0bPg59v/aylpBJwAAs2OyEwCAWWurbT+0P3tzrwcA3Rjucn6sqs9aBgDAnAk7AQDgP6HnYnhp7J4nAB1wlxMAABphJwAA3OKeJwAj9m3YRGBdLQAA/E3YCQAAd8jM4abncUS8UR8Aduysraw91QgAAPin/1IPAAD42fBCuaqG1bbvI+JKiQDYgeHnz/9U1VLQCQAAdzPZCQAAj8jM/WFtYPuzp14AbNhVm+Q8VmgAAHiYsBMAAJ5I6AnAhq3a3ejPVXWt2AAA8DhhJwAAPFMLPYeX0f9WOwDWQMgJAAAvJOwEAIAXyszhpudHoScAr/ClrawVcgIAwAsIOwEA4JWEngC8wEkLOS8VDwAAXk7YCQAAayL0BOAJhJwAALBGwk4AAFgzoScAdxByAgDABgg7AQBgQ4SeAAg5AQBgs4SdAACwYUJPgFkScgIAwBYIOwEAYEuEngCTt4qIz8OfqrrWbgAA2DxhJwAAbFkLPY8i4kNE7Kk/QPeEnAAAsCPCTgAA2JHM3G+Bp9AToE9XLeQ8FnICAMBuCDsBAGDHWuh52FbcvtEPgNG7avc4j7UKAAB2S9gJAAAjkplHbcXtO30BGJ2zFnKeag0AAIyDsBMAAEYoM5ct9Py3/gDs3EkLOS+1AgAAxkXYCQAAI5aZi3bT88hdT4CtWrV7nJ/d4wQAgPESdgIAQAfaXc+jFny66wmwORct4HSPEwAAOiDsBACAzmTmYQs93fUEWJ9hVe2xe5wAANAXYScAAHTKiluAV7tZVXvsHicAAPRJ2AkAAJ1rK25vpj3f6ifAo85awGlVLQAAdE7YCQAAE5KZBy30PDTtCfAPwxTncbvHaYoTAAAmQtgJAAATZNoT4C+mOAEAYMKEnQAAMHGmPYEZMsUJAAAzIewEAICZuDXteRQR7/QdmKBvEfHVFCcAAMyHsBMAAGYoMxct9Bz+vPFvAOjY1TDB2UJOU5wAADAzwk4AAJi5zFy20NOaW6AXw5rar21N7bmuAQDAfAk7AQCAP91aczv8+ZeqACM0rKk9rqqvmgMAAISwEwAAuEsLPm/W3L5VJGCHvrUpzmFN7bVGAAAAtwk7AQCAB7X7noeCT2CLLoYJTnc4AQCAxwg7AQCAJxN8Ahsk4AQAAJ5N2AkAALyI4BNYAwEnAADwKsJOAADg1QSfwDOc3brBKeAEAABeRdgJAACs1a3gcxkR/1JdICK+3Qo4rxUEAABYF2EnAACwMZm5fyv4HP7eU22YhauIOG3h5lctBwAANkXYCQAAbE1mLm+Fn9bdwrRc3JrePNdbAABgG4SdAADATvyw7nZp6hO6s7qZ3hz+dn8TAADYBWEnAAAwCqY+oQumNwEAgFERdgIAAKPzw63P4c8bXYKduLqZ3GzTm9faAAAAjImwEwAAGL228vb25KeVt7AZVzfBptW0AABAD4SdAABAdzLz4NbUp/ATXk64CQAAdE3YCQAAdO/W5Ke1t/Cw4ebmuXATAACYCmEnAAAwOe3m503wOUyBvtNlZuqsBZvnbm4CAABTJOwEAABmITNvgs8D059M1M3U5k2wea7RAADA1Ak7AQCAWWrTnwe3pj8PBKB05OqHYPNU8wAAgDkSdgIAADR3BKDDLdC36sOO3Z7Y/POPdbQAAAD/IewEAAB4xK0VuItbU6B76saarW4mNSPicvhjYhMAAOBhwk4AAIAXuDUFKgTluVa3pjQvTWsCAAC8nLATAABgjW6FoItbIah1uPN0FhHXt0JNk5oAAABrJuwEAADYknuC0H0Tod26ugkxf/hjShMAAGBLhJ0AAAAjkZk34edNGHoThA7e6dNW3ayajfb39a2/hwnNy5nUAQAAYNSEnQAAAB3JzJsgdLBsf98ORfetzH3Q2a3/8Wal7PWtYFOQCQAA0BFhJwAAwIRl5vLW/7vboeiN5R3/78c8RXp2x3/34x3M2//5uqrOAwAAgEkSdgIAAPBkP4SnmyCcBAAA4MmEnQAAAAAAAECX/kvbAAAAAAAAgB4JOwEAAAAAAIAuCTsBAAAAAACALgk7AQAAAAAAgC4JOwEAAAAAAIAuCTsBAAAAAACALgk7AQAAAAAAgC4JOwEAAAAAAIAuCTsBAAAAAACALgk7AQAAAAAAgC4JOwEAAAAAAIAuCTsBAAAAAACALgk7AQAAAAAAgC4JOwEAAAAAAIAuCTsBAAAAAACALgk7AQAAAAAAgC4JOwEAAAAAAIAuCTsBAAAAAACALgk7AQAAAAAAgC4JOwEAAAAAAIAuCTsBAAAAAACALgk7AQAAAAAAgC4JOwEAAAAAAIAuCTsBAAAAAACALgk7AQAAAAAAgC4JOwEAAAAAAIAuCTsBAAAAAACALgk7AQAAAAAAgC4JOwEAAAAAAIAuCTsBAAAAAACALgk7AQAAAAAAgC4JOwEAAAAAAIAuCTsBAAAAAACALgk7AQAAAAAAgC4JOwEAAAAAAIAuCTsBAAAAAACALgk7AQAAAAAAgC4JOwEAAAAAAIAuCTsBAAAAAACALgk7AQAAAAAAgC4JOwEAAAAAAIAuCTsBAAAAAACALgk7AQAAAAAAgC4JOwEAAAAAAIAuCTsBAAAAAACALgk7AQAAAAAAgC4JOwEAAAAAAIAuCTsBAAAAAACALgk7AQAAAAAAgC4JOwEAAP6Pvbs/qiPJ3gR8zsT+D2sBtAUwFkBbIH4WiLFg8WDxYPFAyIJWWyBkgZAFAgsaLMiN6k5mGDXi496qezOrnieC6C8EdU+KVgQv70kAAACgS8JOAAAAAAAAoEvCTgAAAAAAAKBLwk4AAAAAAACgS8JOAAAAAAAAoEvCTgAAAAAAAKBLwk4AAAAAAACgS8JOAAAAAAAAoEvCTgAAAAAAAKBLwk4AAAAAAACgS8JOAAAAAAAAoEvCTgAAAAAAAKBLwk4AAAAAAACgS8JOAAAAAAAAoEvCTgAAAAAAAKBLwk4AAAAAAACgS8JOAAAAAAAAoEvCTgAAAAAAAKBLwk4AAAAAAACgS8JOAAAAAAAAoEvCTgAAAAAAAKBLwk4AAAAAAACgS8JOAAAAAAAAoEvCTgAAAAAAAKBLwk4AAAAAAACgS8JOAAAAAAAAoEvCTgAAAAAAAKBLwk4AAAAAAACgS8JOAAAAAAAAoEvCTgAAAAAAAKBLwk4AAAAAAACgS8JOAAAAAAAAoEvCTgAAAAAAAKBLwk4AAAAAAACgS8JOAAAAAAAAoEvCTgAAAAAAAKBLwk4AAAAAAACgS8JOAAAAAAAAoEvCTgAAAAAAAKBLwk4AAAAAAACgS8JOAAAAAAAAoEvCTgAAAAAAAKBLwk4AAAAAAACgS8JOAAAAAAAAoEvCTgAAAAAAAKBLwk4AAAAAAACgS8JOAAAAAAAAoEvCTgAAAAAAAKBLwk4AAAAAAACgS8JOAAAAAAAAoEvCTgAAAAAAAKBLwk4AAAAAAACgS8JOAAAAAAAAoEvCTgAAAAAAAKBLwk4AAAAAAACgS8JOAAAAAAAAoEvCTgAAAAAAAKBLwk4AAAAAAACgS8JOAAAAAAAAoEvCTgAAAAAAAKBLwk4AAAAAAACgS8JOAAAAAAAAoEvCTgAAAAAAAKBLwk4AAAAAAACgS8JOAAAAAAAAoEvCTgAAAAAAAKBLwk4AAAAAAACgS//LsQGwRJl5GBG7P7z04Z8PnxnHU78GAAAAxnYXEdfPfMzr+j6P3ZRSbpwEAEuTpRSHDkCXMnM/Ivbrs/8YVB7/8JqOnDIAAAAL8+XRy/0xQH0cmF6XUn4MTwGgC8JOAJqTmQ9B5eMm5cO/G/75wKkBAADAJL49CkGv6l9v6luUUq6MHYCWCDsB2KhH62Mf/vrQzhRiAgAAQD8eQtGbH9+s0wVgk4SdAIwqMx+CzP0f3oZ/t2PaAAAAsAi3P4Sgf67N1QwFYGzCTgBWUlfNPgSbDy1N92ICAAAAL7mv4efjIHRohF6bHABvJewE4Fk11HxoaT78/Z6pAQAAABN4aIRePYSh2qAAPEfYCcCf6l2ah0JNAAAAoEGPQ1BNUAD+TdgJsEC1rXn46O3A7wMAAACgQ18ercK91gIFWB5hJ8CMZebDnZqPw01tTQAAAGDOvj2EnwJQgPkTdgLMiMYmAAAAwJMeAtCrGoBagQswE8JOgE5l5v4Prc0jZwkAAADwal8e3QF6VUq5MzqA/gg7ATqRmY+DzWPraAEAAABGdVvDz6saft4YL0D7hJ0AjaoraR+HmzvOCgAAAGBj7n8IP62+BWiQsBOgEY/CzWMraQEAAACaI/wEaJCwE2BLHq2lPdbcBAAAAOjO4/Dzk7W3ANsh7ATYkMzcfxRsngg3AQAAAGbl9ofw887xAkxP2Akwocw8eRRwHpg1AAAAwGJ8exR8Xjl2gGkIOwFGVNubDwHnO7MFAAAA4NHK20/1vk8rbwFGIuwEWNOj9ubw1z3zBAAAAOAFD63Py1LKtWEBrE7YCfBGmbn7qL3p7k0AAAAA1nFfG58PrU93fQK8gbAT4BUeracd3o7MDAAAAICJ/G7dLcDrCTsBfiIzD2t78zQiDswJAAAAgA0b1t1eDuGn4BPgacJOgEdqwHnq/k0AAAAAGiP4BHiCsBNYPAEnAAAAAJ0RfAJUwk5gkQScAAAAAMyE4BNYNGEnsBiZuV/DTXdwAgAAADBHgk9gcYSdwKxl5m4NNwWcAAAAACzJ70PoWYPPOycPzJWwE5ilzHxYUfvOCQMAAACwcB9r6Plp6YMA5kfYCcxGZh4/uodzx8kCAAAAwH+5r2tuL0sp10YDzIGwE+havYfzYU3tntMEAAAAgFf59ij4tOYW6JawE+iSNbUAAAAAMJrfa+hpzS3QHWEn0I3MPHzU4rSmFgAAAADGdTvc7RkRF6WUG7MFeiDsBJqWmbu1wXkWEQdOCwAAAAA24ktte14aN9AyYSfQpNriPKtBpxYnAAAAAGzHfb3bU9sTaJKwE2hKvYtzeDtyMgAAAADQlC819HS3J9AMYSewdZm5X1uc7uIEAAAAgPbdPmp73jkvYJuEncDWZOZxDTnfOQUAAAAA6NLHerfnleMDtkHYCWxUZu7WezjPI2LP9AEAAABgFr7Vpuel4wQ2SdgJbIRVtQAAAACwCPdD6GnFLbApwk5gUnVV7RBwvjdpAAAAAFiUYcXteSnlxrEDUxF2ApPIzNMach6ZMAAAAAAs2pcaerrXExidsBMYjfs4AQAAAIBn3NbQ072ewGiEncDaash5Vt/cxwkAAAAAPGcIPS/d6wmMQdgJrCwz92uL032cAAAAAMBb3Q+Bp9ATWIewE3gzIScAAAAAMLKPdcXtjcECbyHsBF4tM4/rqtp3pgYAAAAATEDoCbyJsBN4UQ05hybnkWkBAAAAABvwsa63vTZs4DnCTuCnhJwAAAAAwJZ9qU3PKwcBPEXYCfyNkBMAAAAAaIzQE3iSsBP4NyEnAAAAANA4oSfwX4SdgJATAAAAAOiN0BP4k7ATFkzICQAAAAB07mMNPW8cJCyTsBMWKDMPI+JCyAkAAAAAzITQExbqHw4eliMz9zPzMiK+CjoBAAAAgBl5HxHfh+9/Dt8HdbCwHJqdsAD1D/fz+gc+AAAAAMCc3dfNdhellDsnDfMm7IQZy8zdiDirbzvOGgAAAABYEKEnLICwE2YqM89qm1PICQAAAAAs2W29z/PS7wKYH2EnzExmntaQc8/ZAgAAAAD82xB6npZSrowE5uMfzhLmITOPM3P4Q/qDoBMAAAAA4G+G75t+Hr6PmpmHxgPzoNkJncvM/bp3/p2zBAAAAAB4tY91ve2NkUG/hJ3QqczcjYjhXs7/6wwBAAAAAFZyX8skF6WUOyOE/gg7oUOZeVbv5dxxfgAAAAAAa7utLc9Lo4S+CDuhI8O9nPWnjA6cGwAAAADA6L4MG/VKKddGC30QdkIH3MsJAAAAALBRH2voabUtNE7YCQ17dC/nmZW1AAAAAAAbdV9X214YO7RL2AmNysyT2ubcc0YAAAAAAFvzrbY8rxwBtEfYCY2pK2uHS7CPnA0AAAAAQDN+r6HnjSOBdvzDWUAbhpW1mXkeEd8FnQAAAAAAzXkXEdeZeeZooB2andCAzDyubU4rawEAAAAA2me1LTRCsxO2aFhZm5mfIuKzoBMAAAAAoBsHw/d1M/Ny2Nrn2GB7hJ2wJXXVwXVdfQAAAAAAQH/eR8RNZp46O9gOa2xhwzLzsK6sPTB7AAAAAIDZ+BIRp6WUG0cKm6PZCRsyrDLIzIuI+CroBAAAAACYnaOI+J6Z544WNkezEzYgM49rm9O9nAAAAAAA8/ctIs5KKVfOGqal2QkTqm3OT8NF1YJOAAAAAIDFGLb7fR62/Q3fJ3bsMB3NTphIZp7UNueOGQMAAAAALNZtvctTyxMmoNkJI3vU5vxN0AkAAAAAsHh7Wp4wHc1OGJE2JwAAAAAAz7itd3l+MiQYh7ATRlB/GmcIOd+ZJwAAAAAAL/i9rra9MyhYj7AT1qTNCQAAAADACu4j4sRdnrAed3bCitzNCQAAAADAGnbc5Qnr0+yEFWhzAgAAAAAwotu61lbLE95IsxPeQJsTAAAAAIAJ7Gl5wmo0O+GVMvO4tjn3zAwAAAAAgIl8qy3PawOGl2l2wisMP00z/FSNoBMAAAAAgIkdRMTXzDw3aHiZZic8IzMPa5vzwJwAAAAAANiwL7XleWPw8DTNTviJzDwbfnpG0AkAAAAAwJYcRcR1Zp46AHiaZif8oF7+/Kn+IQIAAAAAAC34vbY875wG/IdmJzySmScRcSPoBAAAAACgMe9qy/PQwcB/CDuhysyLiPgtInbMBAAAAACABu0N169l5rnDgb9YY8viZeZ+XVvrbk4AAAAAAHrxJSJOrLVl6TQ7WbR6qfO1oBMAAAAAgM4M17HdZOaxg2PJhJ0sUmbuZuZlRHywthYAAAAAgE4N39/+XK9pg0WyxpbFqZc3X2pzAgAAAAAwI9/qWtsbh8qSaHayKHVt7ZWgEwAAAACAmRm+732dmScOliURdrII1tYCAAAAALAAw/e/f8vMc4fNUlhjy+xl5n5EfNLmBAAAAABgQb7UtbZ3Dp050+xk1mpd/1rQCQAAAADAwhxFxE1mHjt45kzYyWxl5sVQ17e2FgAAAACAhRq+P/45M8/8BmCurLFldob7Oeva2iOnCwAAAAAAf/o9Ik6ttWVuhJ3MSmYeRsSVNicAAAAAAPzNtxp4XhsNc2GNLbORmacR8VXQCQAAAAAATzoYCkOZeWI8zIWwk1nIzMuI+OA0AQAAAADgWUNh6LfMPDcm5sAaW7pW7+e8qj+NAgAAAAAAvJ57POmeZifdqvdz3gg6AQAAAABgJe/qWttD46NXwk665H5OAAAAAAAYhXs86Zqwk+5k5oX7OQEAAAAAYDQP93ieGSm9cWcn3aj3c36KiCOnBgAAAAAAk/hYSjk1Wnoh7KQLdV/4pfs5AQAAAABgct8i4riUcmfUtM4aW5qXmcfDvnBBJwAAAAAAbMTw/fjrWkSCpgk7aVpmDlX5z3VfOAAAAAAAsBl7QxEpM0/Mm5YJO2lWZl5ExAcnBAAAAAAAWzEUkX7LzDPjp1Xu7KQ5mbkbEUPQ+d7pAAAAAABAEz6WUk4dBa0RdtKUGnS6nxMAAAAAANrzJSJOSil3zoZWWGNLM+pFx9eCTgAAAAAAaNJRvcdz1/HQCmEnTcjM49ro3HMiAAAAAADQrKGwdFMLTLB1wk62LjOHHd+f60XHAAAAAABA23Zqw/PYObFtwk62KjPPIuKDUwAAAAAAgK4MgefnWmiCrRF2sjWZeRkR/88JAAAAAABAtz5k5rnjY1uylGL4bFS9uPgiIt6bPAAAAAAAzMLHUoqWJxsn7GSjatB5VS8wBgAAAAAA5uNjRJyVUu6cKZsi7GRjBJ0AAAAAADB73yLiWODJprizk43IzMOIuBF0AgAAAADArA05wFUtQMHkhJ1MrgadQ6Nzx7QBAAAAAGD2hsDzpuYDMClhJ5PKzGNBJwAAAAAALM5ObXgKPJmUsJPJZOZpRHwWdAIAAAAAwCIJPJmcsJNJ1KDzg+kCAAAAAMCiDYHn15obwOiEnYxO0AkAAAAAAPzgg8CTKQg7GVVmXgg6AQAAAACAJwg8GV2WUkyVUWTmZUS8N00AAAAAAOAZ/yqlXBoQY9DsZBSCTgAAAAAA4JU+1E2RsDbNTtYm6AQAAAAAAFbwsZRirS1r0exkLYJOAAAAAABgRe9rzgArE3ayMkEnAAAAAACwJoEnaxF28maZuSvoBAAAAAAARiLwZGXu7ORNhqAzIq4i4sDkAAAAAACAEbnDkzfT7OTVBJ0AAAAAAMCENDx5M2EnryLoBAAAAAAANkDgyZsIO3mRoBMAAAAAANgggSevJuzkWYJOAAAAAABgCwSevIqwk58SdAIAAAAAAFsk8ORFwk6ecyHoBAAAAAAAtkjgybOEnTyp/o/jvekAAAAAAABbJvDkp4Sd/I2gEwAAAAAAaIzAkycJO/kvgk4AAAAAAKBRAk/+RtjJvwk6AQAAAACAxg2B55lD4kGWUgwDQScAAAAAANCTf5VStDzR7OTPoPNc0AkAAAAAAHTkQ2aeOjA0Oxeu/o/gw9LnAAAAAAAAdEnDc+GEnQsm6AQAAAAAAGbgf0opnxzkMgk7F0rQCQAAAAAAzMR9RByXUq4d6PIIOxcoMw8j4uvS5wAAAAAAAMyGwHOh/rH0ASxNDTqvlj4HAAAAAABgVnaG/KPmICyIsHNBHgWdO0ufBQAAAAAAMDtD/nGZmbuOdjmssV2I+oU9VLf3lj4LAAAAAABg1r7VlbZ3jnn+NDsXoAadV4JOAAAAAABgAQ5c6bccws5luKpf2AAAAAAAAEtwkJmXTnr+hJ0zV7+QBZ0AAAAAAMDSvBd4zp+wc8bqF/D7pc8BAAAAAABYrCHwPHP885WllKXPYJYy8zQiPix9DgAAAAAAABHxr1KKlucMCTtnSNAJAAAAAADwN/8spVwby7wIO2cmMw8j4uvS5wAAAAAAAPCD+4g4FnjOizs7Z6QGnVdLnwMAAAAAAMATdiLiU2buGs58CDtnon5hXtYvVAAAAAAAAP5ubyiOCTznQ9g5H0Oj82DpQwAAAAAAAHjBkKdcGNI8CDtnIDMvBZ0AAAAAAACv9j4zBZ4zIOzsXGaeD1+QS58DAAAAAADAG/2fzDw1tL5lKWXpM+hW/QL8sPQ5AAAAAAAArOHXUsqVAfZJ2NmpzDyMiK9LnwMAAAAAAMCa7iPiuJRybZD9sca2Q5m5HxF+wgAAAAAAAGB9OxFxmZm7ZtkfYWdn6hfap/qFBwAAAAAAwPoOav5CZ4Sd/bmsX3AAAAAAAACM5ygzL82zL8LOjmTmeUS8W/ocAAAAAAAAJvI+M08Ntx9ZSln6DLpQv7A+LH0OAAAAAAAAG/DPUsq1QbdP2NmBzDyMiCv3dAIAAAAAAGzEfUQcllJujLtt1tg2LjN364W4gk4AAAAAAIDNGHKZTzWnoWHCzvYNQefe0ocAAAAAAACwYQcRcWHobRN2Niwzhy+go6XPAQAAAAAAYEveZ+aZ4bfLnZ2NyszTiPiw9DkAAAAAAAA04NdSypWDaI+ws0GZeRgRV+7pBAAAAAAAaMJ9RByWUm4cR1uEnY2pF91eu6cTAAAAAACgKd9KKYeOpC3u7GzPpaATAAAAAACgOQeZeelY2iLsbEhmnkfEu6XPAQAAAAAAoFHvM/PU4bTDGttGZOZxRHxe+hwAAAAAAAAaN9zfeVxKuXZQ2yfsbEBm7td7OneWPgsAAAAAAIAO3EbEYSnlzmFtlzW2bfgk6AQAAAAAAOjGXkS4v7MBws4ty8yL4ULbRQ8BAAAAAACgP+8y88y5bZc1tluUmScR8dtiBwAAAAAAANC/f7q/c3uEnVvink4AAAAAAIBZcH/nFlk5MlUYAAAgAElEQVRjuz3u6QQAAAAAAOif+zu3SNi5Be7pBAAAAAAAmBX3d26JNbYb5p5OAAAAAACA2XJ/54YJOzfIPZ0AAAAAAACz5v7ODbPGdrMuBZ0AAAAAAACz5f7ODRN2bkhmnkfE0SJeLAAAAAAAwHIN93eeOv/NsMZ2AzLzOCI+z/6FAgAAAAAAMLiPiGP3d05P2DmxzNyt93TuzfqFAgAAAAAA8Ni3UsqhiUzLGtvpXQo6AQAAAAAAFucgMy8c+7Q0OydU9zF/mO0LBAAAAAAA4CW/llKuTGkaws6JZOZ+XV+7M8sXCAAAAAAAwGsM93ful1LuTGt81thO51LQCQAAAAAAsHg7NTdiAsLOCWTmeUQcze6FAQAAAAAAsIp39fpDRmaN7cgy8zAivs7qRQEAAAAAALCuYZ3tYSnlxiTHo9k5oszcVUMGAAAAAADgCdbZTkDYOa5hfe3BnF4QAAAAAAAAoznKzDPjHI81tiPJzOOI+DyLFwMAAAAAAMCU/llKuTbh9Qk7R1DX1w6/Ife6fzEAAAAAAABM7Vsp5dCU12eN7TjOBZ0AAAAAAAC80kFmnhvW+jQ712R9LQAAAAAAACuyznZNws41WF8LAAAAAADAGqyzXZM1tuu5FHQCAAAAAACwIuts16TZuSLrawEAAAAAABiJdbYrEnauwPpaAAAAAAAARmSd7YqssV3NuaATAAAAAACAkVhnuyLNzjeyvhYAAAAAAICJWGf7RsLON7C+FgAAAAAAgAlZZ/tG1ti+jfW1AAAAAAAATGVYZ3tmuq+n2flKmTmk6F+7eFgAAAAAAAB6dR8Rh6WUGyf4Ms3O17vs5UEBAAAAAADo1o5c6vWEna+QmcP62oPmHxQAAAAAAIA5OMrMEyf5MmtsX5CZ+xFxXVN0AAAAAAAA2IRhne1+KeXOtH9Os/Nll4JOAAAAAAAANmzIpy4M/Xmanc+o9eDfmn1AAAAAAAAA5u7XUsqVU36asPMnMnM3Im60OgEAAAAAANii21LKvgN4mjW2P3cu6AQAAAAAAGDL9jLz3CE8TbPzCZl5HBGfm3swAAAAAAAAlug+Ig5LKTdO/79pdj7NZa8AAAAAAAC0YthGeuk0/k7Y+YPMPIuIg6YeCgAAAAAAgKU7ysyTpQ/hR9bYPpKZuxFx465OAAAAAAAAGnRb19neOZy/aHb+twtBJwAAAAAAAI3ai4gzh/Mfmp1VZh5HxOcmHgYAAAAAAAB+7pdSyrCtdPE0O//jopUHAQAAAAAAgGdcGs5fhJ1/tTqHuu9BA48CAAAAAAAALzmqW0sXb/FrbDNzNyJu3NUJAAAAAABAR25LKftLPzDNzohzQScAAAAAAACd2cvM86Uf2qKbnZl5GBFfG3gUAAAAAAAAeKv7iNgvpdwtdXJLb3ZeNPAMAAAAAAAAsIqdpeddi212ZuZJRPzWwKMAAAAAAADAOn4tpVwtcYJLDjtvhl3GDTwKAAAAAAAArONLKeV4iRNc5BrbelmroBMAAAAAAIA5OMrM0yWe5OKanZm5GxE3dYcxAAAAAAAAzMFtKWV/aSe5xGbnuaATAAAAAACAmdmr200XZVHNzswc0uzvDTwKAAAAAAAAjO0+IvZLKXdLmezSmp0XDTwDAAAAAAAATGGnbjldjMU0OzPzOCI+N/AoAAAAAAAAMKVfSik3S5jwkpqdi9tRDAAAAAAAwCItZtvpIsLOzDyNiKMGHgUAAAAAAACm9q5uPZ29RayxzcyhprvXwKMAAAAAAADAJnwppcw+8Jx9s7O2OgWdAAAAAAAALMnREtqds252ZuZuRAytzp0GHgcAAAAAAAA26baUsj/nic+92Xkm6AQAAAAAAGCh9uoW1NmabbNTqxMAAAAAAADm3e6cc7NTqxMAAAAAAIClG9qdZ3OdwSybnZk5pNPXwk4AAAAAAACI+4jYL6XczW0Uc212ngs6AQAAAAAA4E87dSvq7Myu2Vlbnd8beBQAAAAAAABoxSzbnXNsdp438AwAAAAAAADQklm2O2fV7NTqBAAAAAAAgJ+aXbtzbs1OrU4AAAAAAAB42uzanbNpdmp1AgAAAAAAwItm1e6cU7NTqxMAAAAAAACeN6t25yyanVqdAAAAAAAA8GqzaXfOpdmp1QkAAAAAAACvM5t2Z/fNTq1OAAAAAAAAeLNZtDvn0OzU6gQAAAAAAIC3mUW7s+tmp1YnAAAAAAAArKz7dmfvzU6tTgAAAAAAAFhN9+3ObpudWp0AAAAAAACwtq7bnT03O7U6AQAAAAAAYD1dtzu7bHZm5m5E3NThAwAAAAAAAKu7LaXs9zi/XpudZ4JOAAAAAAAAGMVeZp72OMrump1anQAAAAAAADC6LtudPTY7tToBAAAAAABgXF22O3tsdg6tzr0GHgUAAAAAAADm5Fsp5bCn19NVs7OmyYJOAAAAAAAAGN9BZh73NNeump1anQAAAAAAADCpL6WUbgLPbpqdmXki6AQAAAAAAIBJHWVmN6tse1pje9bAMwAAAAAAAMDcdZPLdbHGtqbHXxt4FAAAAAAAAFiCX0opN62/zl6anVqdAAAAAAAAsDmnPcy6+WZnZu5HxPcGHgUAAAAAAACW4j4i9kspdy2/3h6anV2kxgAAAAAAADAjOxFx0vrLabrZmZm7EXFThwkAAAAAAABszm0pZb/lebfe7DwRdAIAAAAAAMBW7GVm0+3O1pudQ6tzr4FHAQAAAAAAgCX6Uko5bvV1N9vszMxjQScAAAAAAABs1VFmNrvKtuU1tmcNPAMAAAAAAAAs3Xmrr7/JNbY1Hf7ewKMAAAAAAADA0t1HxH4p5a61ObTa7NTqBAAAAAAAgDbsRMRpi2fRXLMzM3cj4qYODQAAAAAAANi+21JKc3d3ttjsPBF0AgAAAAAAQFP2MvOktYdqMey0whYAAAAAAADa09wq26bW2GbmcUR8buBRAAAAAAAAgL/7pZRy08pcWmt2NnmxKQAAAAAAAPCnpvK8ZpqdmbkbEX808CgAAAAAAADA0+5LKbutzKalZqdWJwAAAAAAALRtJzObyfVaanYOu333GngUAAAAAAAA4Oe+lFKOW5hPE83OzDwWdAIAAAAAAEAXjjJzv4UHbWWNrRW2AAAAAAAA0I+zFp5062tsM3O4wPSPrT4EAAAAAAAA8Ba3pZSttztbaHZqdQIAAAAAAEBf9jLzZNtPLOwEAAAAAAAAVrH1nG+ra2wz8zAivm7tAQAAAAAAAIB1/FJKudnWBLfd7Gzi4lIAAAAAAABgJVtdZbvtZuddROxs7QEAAAAAAACAddyWUva3NcGtNTsz81TQCQAAAAAAAF3bq1dXbsU219hutdIKAAAAAAAAjGJrV1duZY1tZg5V1u8b/8QAAAAAAADA2O5LKbvbmOq2mp1anQAAAAAAADAPO/UKy43bVti5lRcLAAAAAAAATGIrZceNr7GtF5R+3egnBQAAAAAAAKb2SynlZpNT3kazU6sTAAAAAAAA5mfj7c5tNDuHNHdvo58UAAAAAAAAmNq3UsrhJqe80WZnZp4IOgEAAAAAAGCWDjJzf5MvbNNrbLdyMSkAAAAAAACwEWebHPNG19hm5l1E7GzsEwIAAAAAAACbdFtK2Vi7c2PNzrrCVtAJAAAAAAAA87WXmRu7t3OTa2xPN/i5AAAAAAAAgO3YWC64kTW2mbkbEX9M/okAAAAAAACAbdvYKttNNTtPNvR5AAAAAAAAgO0aVtkeb+IJhJ0AAAAAAADA2DayynbyNbZW2AIAAAAAAMDi3JdSdqd+0Ztodmp1AgAAAAAAwLLsZObkOaGwEwAAAAAAAJjC5DnhpGtsrbAFAAAAAACAxZp8le3UzU6tTgAAAAAAAFimYZXt8ZSvXNgJAAAAAAAATGXSvHCyNbZW2AIAAAAAAMDi3ZZS9qcawpTNzkkrqQAAAAAAAEDz9jLzcKqHnDLstMIWAAAAAAAAOJ1qAlOusb0bLh2d5IMDAAAAAAAAvZhsle0kzc7MPBF0AgAAAAAAAHWVbT9hp/s6AQAAAAAAgEcmuQJzkjW2mXkzJLSjf2AAAAAAAACgR99KKYdjP/foYWdmDg/5ddQPCgAAAAAAAPTuf5dS7sZ8DVOssZ2kggoAAAAAAAB0bfQcUdgJAAAAAAAAbMLoOeKoa2wzcz8ivo/2AQEAAAAAAIC5uC+l7I75WsZudh6P/PEAAAAAAACAedjJzFHbnWOHnVbYAgAAAAAAAD8zanly7DW2d0MiO9oHBAAAAAAAAObktpSyP9brGa3ZmZnHgk4AAAAAAADgGXuZ2V7YaYUtAAAAAAAA8Aqj5Ypjhp2j7tcFAAAAAAAAZmm0XHGUOztr1fT7KE8EAAAAAAAAzFopJcd4fWM1O7U6AQAAAAAAgFfJzFFW2Y4VdrqvEwAAAAAAAHitUcqUmp0AAAAAAADAprURdmbmYUTsbPrVAwAAAAAAAN06yMz9dR9+jGanFbYAAAAAAADAW63d7hwj7LTCFgAAAAAAAHirtXPGLKWs9wEy1/sAAAAAAAAAwBLdllLWWmW7VrMzM7U6AQAAAAAAgFXsZebhOpNbd42t+zoBAAAAAACAVa1Vrlw37NTsBAAAAAAAAFa1Vt648p2dmbkbEX84NgAAAAAAAGBF96WU3VV/8TrNTq1OAAAAAAAAYB0769zbKewEAAAAAAAAtmnl3FHYCQAAAAAAAGzTyrnjSnd2uq8TAAAAAAAAGMnK93au2uzU6gQAAAAAAADGsPK9nauGnStfEgoAAAAAAADwg5XKlpqdAAAAAAAAwLatVLZc9c7Ot/8iAAAAAAAAgKfdllL23zqbNzc7M1OrEwAAAAAAABjTXmZOH3ZaYQsAAAAAAABM4M055Cph50r7cgEAAAAAAACe8eYcUrMTAAAAAAAAaMGbc8gspbz+nf/ak/vdUQMAAAAAAABjK6XkWz7kW5udWp0AAAAAAADAJDLzTXnkW8NO93UCAAAAAAAAU5k07NTsBAAAAAAAAKbypvLlW+/sfP07AwAAAAAAALzNfSll97W/4tXNzrfuxwUAAAAAAAB4o53M3H/tL3nLGlv3dQIAAAAAAABTe3Uu+ZawU7MTAAAAAAAAmNokYadmJwAAAAAAADC1V5cws5Ty8jtlDpeA/uHYAAAAAAAAgKmVUvI1n+K1zU6tTgAAAAAAAGAjMvNV+eRrw073dQIAAAAAAACbMmrYqdkJAAAAAAAAbIqwEwAAAAAAAOjSq/LJLKU8/w6ZuxHxh98DAAAAAAAAwIbcl1J2X/pUr2l2anUCAAAAAAAAm7STmfsvfT5hJwAAAAAAANCiF3NKYScAAAAAAADQImEnAAAAAAAA0KXjlx46SynPv0Pm8+8AAAAAAAAAML7bUsqz93Y+2+zMTK1OAAAAAAAAYBv2XvqcL62xfTYpBQAAAAAAAJhKZj67yvalsFOzEwAAAAAAANiWZ/PKl8LOFy/9BAAAAAAAAJjI6nd2WmMLAAAAAAAAbNGzzc4spfz8P2b+/D8CAAAAAAAATOu+lLL7s8/w02bn/2fvjo7iuIIAik6r/C8yEBmYDEQoDkWhWJnImdghOILnklyLYXdWLksG5qrO+YJlq5ilPy/93r9d9gkAAAAAAADwzN7OzH+PnY6wBQAAAAAAAA7g6lG2YicAAAAAAABwZN8UOx1jCwAAAAAAALy2q0uaX4udV8++BQAAAAAAAHghVzc7Z621/4OZ/R8AAAAAAAAAvJw/1lq72527m50zc7WOAgAAAAAAALygd9d+1bVjbB1hCwAAAAAAABzCzNzvPce12Ln7ZgAAAAAAAIBXsLusabMTAAAAAAAAOLrdazivxU53dgIAAAAAAABHcbv3HNdi5+6bAQAAAAAAAF7Bbr+ctdblizOXLwIAAAAAAAC8jj/XWhdXcV5sds6MI2wBAAAAAACAI3m79yx7x9heFFEAAAAAAACA1zQz9+e/fi92XrwJAAAAAAAA4Gj2YicAAAAAAADA0djsBAAAAAAAAJIuruO02QkAAAAAAAAU3J0/417sfG+UAAAAAAAAwMFcbHbOWuvpCzPL1AAAAAAAAICjWWvN40d6stk5M+7rBAAAAAAAABLc2QkAAAAAAAAknC9vnsdOm50AAAAAAABAgs1OAAAAAAAAoOKrm513xggAAAAAAAAUnMfOG1MDAAAAAAAADurJ8uZ57Lw1NQAAAAAAAOCgnixvnsfOd6YGAAAAAAAAHNST2DlrrX++mVmmBgAAAAAAABzVWmtOj/aw2Tkz9yYGAAAAAAAAVJwfYwsAAAAAAABwWDNzd3q2x7Hz1sgAAAAAAACAg3u4t1PsBAAAAAAAAEp2YycAAAAAAADA0e0eY3tnbAAAAAAAAEDF49h5Y2oAAAAAAADAwT1cz+kYWwAAAAAAAKBkN3Y6xhYAAAAAAADIeBw73xobAAAAAAAAcHAPm52z1vr7i5llagAAAAAAAMDRrbVmO212zowjbAEAAAAAAICU0zG2N8YGAAAAAAAAFMzMl775xrQAAAAAAACAmC8n19rsBAAAAAAAAJJOsdOdnQAAAAAAAECKY2wBAAAAAACAmifH2AIAAAAAAABUfLmm8xQ7b40NAAAAAAAAKBE7AQAAAAAAgCTH2AIAAAAAAAA17uwEAAAAAAAAkp7c2XljhgAAAAAAAEDJKXb+bGoAAAAAAABAiWNsAQAAAAAAgKRZa20zs4wPAAAAAAAAqFhrjc1OAAAAAAAAIEnsBAAAAAAAAJLezMy90QEAAAAAAAA1NjsBAAAAAACAJLETAAAAAAAASBI7AQAAAAAAgJzP13WKnQAAAAAAAECS2AkAAAAAAAAkiZ0AAAAAAABA0ufYeWd0AAAAAAAAQM3n2HljagAAAAAAAECNY2wBAAAAAACAJLETAAAAAAAASBI7AQAAAAAAgCSxEwAAAAAAACi6ETsBAAAAAACAojuxEwAAAAAAAEgSOwEAAAAAAIAksRMAAAAAAABIEjsBAAAAAACAJLETAAAAAAAASBI7AQAAAAAAgCSxEwAAAAAAAEgSOwEAAAAAAIAksRMAAAAAAABIEjsBAAAAAACAJLETAAAAAAAASBI7AQAAAAAAgCSxEwAAAAAAAEgSOwEAAAAAAIAksRMAAAAAAABIEjsBAAAAAACAJLETAAAAAAAASBI7AQAAAAAAgCSxEwAAAAAAAEgSOwEAAAAAAIAksRMAAAAAAABIEjsBAAAAAACAJLETAAAAAAAASBI7AQAAAAAAgCSxEwAAAAAAAEgSOwEAAAAAAIAksRMAAAAAAABIEjsBAAAAAACAJLETAAAAAAAASBI7AQAAAAAAgCSxEwAAAAAAAEgSOwEAAAAAAIAksRMAAAAAAABIEjsBAAAAAACAJLETAAAAAAAASBI7AQAAAAAAgCSxEwAAAAAAAEgSOwEAAAAAAIAksRMAAAAAAABIEjsBAAAAAACAJLETAAAAAAAASBI7AQAAAAAAgCSxEwAAAAAAAEgSOwEAAAAAAIAksRMAAAAAAABIEjsBAAAAAACAJLETAAAAAAAASBI7AQAAAAAAgCSxEwAAAAAAAEgSOwEAAAAAAIAksRMAAAAAAABIEjsBAAAAAACAJLETAAAAAAAASBI7AQAAAAAAgCSxEwAAAAAAAEgSOwEAAAAAAIAksRMAAAAAAABIEjsBAAAAAACAJLETAAAAAAAASBI7AQAAAAAAgCSxEwAAAAAAAEgSOwEAAAAAAIAksRMAAAAAAABIEjsBAAAAAACAJLETAAAAAAAASBI7AQAAAAAAgCSxEwAAAAAAAEgSOwEAAAAAAIAksRMAAAAAAABIEjsBAAAAAACAJLETAAAAAAAASBI7AQAAAAAAgCSxEwAAAAAAAEgSOwEAAAAAAIAksRMAAAAAAABIEjsBAAAAAACAJLETAAAAAAAASBI7AQAAAAAAgKSfjA3gu/y2bdsnf8Jncb9t2/sf8HMBAABA0cdt2343uWfxy7Zt737AzwXwIsROgO/zaa31wd/w/zczH8ROAAAAOIxf11r+4fsZzMy92Anw7RxjCwAAAAAAACSJnQAAAAAAAECS2AkAAAAAAAAkiZ0AAAAAAABAktgJAAAAAAAAJImdAAAAAAAAQJLYCQAAAAAAACSJnQAAAAAAAECS2AkAAAAAAAAkiZ0AAAAAAABAktgJAAAAAAAAJImdAAAAAAAAQJLYCQAAAAAAACSJnQAAAAAAAECS2AkAAAAAAAAkiZ0AAAAAAABAktgJAAAAAAAAJImdAAAAAAAAQJLYCQAAAAAAACSJnQAAAAAAAECS2AkAAAAAAAAkiZ0AAAAAAABAktgJAAAAAAAAJImdAAAAAAAAQJLYCQAAAAAAACSJnQAAAAAAAECS2AkAAAAAAAAkiZ0AAAAAAABAktgJAAAAAAAAJImdAAAAAAAAQJLYCQAAAAAAACSJnQAAAAAAAECS2AkAAAAAAAAkiZ0AAAAAAABAktgJAAAAAAAAJImdAAAAAAAAQJLYCQAAAAAAACSJnQAAAAAAAECS2AkAAAAAAAAkiZ0AAAAAAABAktgJAAAAAAAAJImdAAAAAAAAQJLYCQAAAAAAACSJnQAAAAAAAECS2AkAAAAAAAAkiZ0AAAAAAABAktgJAAAAAAAAJImdAAAAAAAAQJLYCQAAAAAAACSJnQAAAAAAAECS2AkAAAAAAAAkiZ0AAAAAAABAktgJAAAAAAAAJImdAAAAAAAAQJLYCQAAAAAAACSJnQAAAAAAAECS2AkAAAAAAAAkiZ0AAAAAAABAktgJAAAAAAAAJImdAAAAAAAAQJLYCQAAAAAAACSJnQAAAAAAAECS2AkAAAAAAAAkiZ0AAAAAAABAktgJAAAAAAAAJImdAAAAAAAAQJLYCQAAAAAAACSJnQAAAAAAAECS2AkAAAAAAAAkiZ0AAAAAAABAktgJAAAAAAAAJImdAAAAAAAAQJLYCQAAAAAAACSJnQAAAAAAAECS2AkAAAAAAAAkiZ0AAAAAAABAktgJAAAAAAAAJImdAAAAAAAAQJLYCQAAAAAAACSJnQAAAAAAAECS2AkAAAAAAAAkiZ0AAAAAAABAktgJAAAAAAAAJImdAAAAAAAAQJLYCQAAAAAAACSJnQAAAAAAAECS2AkAAAAAAAAkiZ0AAAAAAABAktgJAAAAAAAAJImdAAAAAAAAQJLYCQAAAAAAACSJnQAAAAAAAECS2AkAAAAAAAAkiZ0AAAAAAABAktgJAAAAAAAAJImdAAAAAAAAQJLYCQAAAAAAACSJnQAAAAAAAECS2AkAAAAAAAAkiZ0AAAAAAABAktgJAAAAAAAAJImdAAAAAAAAQJLYCQAAAAAAACSJnQAAAAAAAECS2AkAAAAAAAAkiZ0AAAAAAABAktgJAAAAAAAAJImdAAAAAAAAQJLYCQAAAAAAACSJnQAAAAAAAECS2AkAAAAAAAAkiZ0AAAAAAABAktgJAAAAAAAAJImdAAAAAAAAQJLYCQAAAAAAACSJnQAAAAAAAECS2AkAAAAAAAAkiZ0AAAAAAABAktgJAAAAAAAAJImdAAAAAAAAQJLYCQAAAAAAACSJnQAAAAAAAECS2AkAAAAAAAAkiZ0AAAAAAABAktgJAAAAAAAAJImdAAAAAAAAQJLYCQAAAAAAACSJnQAAAAAAAECS2AkAAAAAAAAkiZ0AAAAAAABAktgJAAAAAAAAJImdAAAAAAAAQJLYCQAAAAAAACSJnQAAAAAAAECS2AkAAAAAAAAkiZ0AAAAAAABAktgJAAAAAAAAJImdAAAAAAAAQJLYCQAAAAAAACSJnQAAAAAAAECS2AkAAAAAAAAkiZ0AAAAAAABAktgJAAAAAAAAJImdAAAAAAAAQJLYCQAAAAAAACSJnQAAAAAAAECS2AkAAAAAAAAkiZ0AAAAAAABAktgJAAAAAAAAJImdAAAAAAAAQJLYCQAAAAAAACSJnQAAAAAAAECS2AkAAAAAAAAkiZ0AAAAAAABAktgJAAAAAAAAJImdAAAAAAAAQJLYCQAAAAAAACSJnQAAAAAAAECS2AkAAAAAAAAkiZ0AAAAAAABAktgJAAAAAAAAJImdAAAAAAAAQJLYCQAAAAAAACSJnQAAAAAAAECS2AkAAAAAAAAkiZ0AAAAAAABAktgJAAAAAAAAJImdAAAAAAAAQJLYCQAAAAAAACSJnQAAAAAAAECS2AkAAAAAAAAkiZ0AAAAAAABAktgJAAAAAAAAJImdAAAAAAAAQJLYCQAAAAAAACSJnQAAAAAAAECS2AkAAAAAAAAkiZ0AAAAAAABAktgJAAAAAAAAJImdAAAAAAAAQJLYCQAAAAAAACSJnQAAAAAAAECS2AkAAAAAAAAkiZ0AAAAAAABAktgJAAAAAAAAJImdAAAAAAAAQJLYCQAAAAAAACSJnQAAAAAAAECS2AkAAAAAAAAkiZ0AAAAAAABAktgJAAAAAAAAJImdAAAAAAAAQJLYCQAAAAAAACSJnQAAAAAAAECS2AkAAAAAAAAkiZ0AAAAAAABAktgJAAAAAAAAJImdAAAAAAAAQJLYCQAAAAAAACSJnQAAAAAAAECS2AkAAAAAAAAkiZ0AAAAAAABAktgJAAAAAAAAJImdAAAAAAAAQJLYCQAAAAAAACSJnQAAAAAAAECS2AkAAAAAAAAkiZ0AAAAAAABAktgJAAAAAAAAJImdAAAAAAAAQJLYCQAAAAAAACSJnQAAAAAAAECS2AkAAAAAAAAkiZ0AAAAAAABAktgJAAAAAAAAJImdAAAAAAAAQJLYCQAAAAAAACSJnQAAAAAAAECS2AkAAAAAAAAkiZ0AAAAAAABAktgJAAAAAAAAJImdAAAAAAAAQJLYCQAAAAAAACSJnQAAAAAAAECS2AkAAAAAAAAkiZ0AAAAAAABAktgJAAAAAAAAJImdAAAAAAAAQJLYCTv9GssAACAASURBVAAAAAAAACSJnQAAAAAAAECS2AkAAAAAAAAkiZ0AAAAAAABAktgJAAAAAAAAJImdAAAAAAAAQJLYCQAAAAAAACSJnQAAAAAAAECS2AkAAAAAAAAkiZ0AAAAAAABAktgJAAAAAAAAJImdAAAAAAAAQJLYCQAAAAAAACSJnQAAAAAAAECS2AkAAAAAAAAkiZ0AAAAAAABAktgJAAAAAAAAJImdAAAAAAAAQJLYCQAAAAAAACSJnQAAAAAAAECS2AkAAAAAAAAkiZ0AAAAAAABAktgJAAAAAAAAJImdAAAAAAAAQJLYCQAAAAAAACSJnQAAAAAAAECS2AkAAAAAAAAkiZ0AAAAAAABAktgJAAAAAAAAJImdAAAAAAAAQJLYCQAAAAAAACSJnQAAAAAAAECS2AkAAAAAAAAkiZ0AAAAAAABAktgJAAAAAAAAJImdAAAAAAAAQJLYCQAAAAAAACSJnQAAAAAAAECS2AkAAAAAAAAkiZ0AAAAAAABAktgJAAAAAAAAJImdAAAAAAAAQJLYCQAAAAAAACSJnQAAAAAAAECS2AkAAAAAAAAkiZ0AAAAAAABAktgJAAAAAAAAJImdAAAAAAAAQJLYCQAAAAAAACSJnQAAAAAAAECS2AkAAAAAAAAkiZ0AAAAAAABAktgJAAAAAAAAJImdAAAAAAAAQJLYCQAAAAAAACSJnQAAAAAAAECS2AkAAAAAAAAkiZ0AAAAAAABAktgJAAAAAAAAJImdAAAAAAAAQJLYCQAAAAAAACSJnQAAAAAAAECS2AkAAAAAAAAkiZ0AAAAAAABAktgJAAAAAAAAJImdAAAAAAAAQJLYCQAAAAAAACSJnQAAAAAAAECS2AkAAAAAAAAkiZ0AAAAAAABAktgJAAAAAAAAJImdAAAAAAAAQJLYCQAAAAAAACSJnQAAAAAAAECS2AkAAAAAAAAkiZ0AAAAAAABAktgJAAAAAAAAJImdAAAAAAAAQJLYCQAAAAAAACSJnQAAAAAAAECS2AkAAAAAAAAkiZ0AAAAAAABAktgJAAAAAAAAJImdAAAAAAAAQJLYCQAAAAAAACSJnQAAAAAAAECS2AkAAAAAAAAkiZ0AAAAAAABAktgJAAAAAAAAJImdAAAAAAAAQJLYCQAAAAAAACSJnQAAAAAAAECS2AkAAAAAAAAkiZ0AAAAAAABAktgJAAAAAAAAJImdAAAAAAAAQJLYCQAAAAAAACSJnQAAAAAAAECS2AkAAAAAAAAkiZ0AAAAAAABAktgJAAAAAAAAJImdAAAAAAAAQJLYCQAAAAAAACSJnQAAAAAAAECS2AkAAAAAAAAkiZ0AAAAAAABAktgJAAAAAAAAJImdAAAAAAAAQJLYCQAAAAAAACSJnQAAAAAAAECS2AkAAAAAAAAkiZ0AAAAAAABAktgJAAAAAAAAJImdAAAAAAAAQJLYCQAAAAAAACSJnQAAAAAAAECS2AkAAAAAAAAkiZ0AAAAAAABAktgJAAAAAAAAJImdAAAAAAAAQJLYCQAAAAAAACSJnQAAAAAAAECS2AkAAAAAAAAkiZ0AAAAAAABAktgJAAAAAAAAJImdAAAAAAAAQJLYCQAAAAAAACSJnQAAAAAAAECS2AkAAAAAAAAkiZ0AAAAAAABAktgJAAAAAAAAJImdAAAAAAAAQJLYCQAAAAAAACSJnQAAAAAAAECS2AkAAAAAAAAkiZ0AAAAAAABAktgJAAAAAAAAJImdAAAAAAAAQJLYCQAAAAAAACSJnQAAAAAAAECS2AkAAAAAAAAkiZ0AAAAAAABAktgJAAAAAAAAJImdAAAAAAAAQJLYCQAAAAAAACSJnQAAAAAAAECS2AkAAAAAAAAkiZ0AAAAAAABAktgJAAAAAAAAJImdAAAAAAAAQJLYCQAAAAAAACSJnQAAAAAAAECS2AkAAAAAAAAkiZ0AAAAAAABAktgJAAAAAAAAJImdAAAAAAAAQJLYCQAAAAAAACSJnQAAAAAAAECS2AkAAAAAAAAkiZ0AAAAAAABAktgJAAAAAAAAJImdAAAAAAAAQJLYCQAAAAAAACSJnQAAAAAAAECS2AkAAAAAAAAkiZ0AAAAAAABAktgJAAAAAAAAJImdAAAAAAAAQJLYCQAAAAAAACSJnQAAAAAAAECS2AkAAAAAAAAkiZ0AAAAAAABAktgJAAAAAAAAJImdAAAAAAAAQJLYCQAAAAAAACSJnQAAAAAAAECS2AkAf7F390dtJHkch1uu+//2IjgcwbEZ4Ay4DHAGdgRnZ4AzgAxMBpABZIAyQBH01eCWLV4Eetd8R89T5dqtrd0CBtzr6s/8ugEAAAAAiCR2AgAAAAAAAJHETgAAAAAAACCS2AkAAAAAAABEEjsBAAAAAACASGInAAAAAAAAEEnsBAAAAAAAACKJnQAAAAAAAEAksRMAAAAAAACIJHYCAAAAAAAAkcROAAAAAAAAIJLYCQAAAAAAAEQSOwEAAAAAAIBIYicAAAAAAAAQSewEAAAAAAAAIomdAAAAAAAAQCSxEwAAAAAAAIgkdgIAAAAAAACRxE4AAAAAAAAgktgJAAAAAAAARBI7AQAAAAAAgEhiJwAAAAAAABBJ7AQAAAAAAAAiiZ0AAAAAAABAJLETAAAAAAAAiCR2AgAAAAAAAJHETgAAAAAAACCS2AkAAAAAAABEEjsBAAAAAACASGInAAAAAAAAEEnsBAAAAAAAACKJnQAAAAAAAEAksRMAAAAAAACIJHYCAAAAAAAAkcROAAAAAAAAIJLYCQAAAAAAAEQSOwEAAAAAAIBIYicAAAAAAAAQSewEAAAAAAAAIomdAAAAAAAAQCSxEwAAAAAAAIgkdgIAAAAAAACRxE4AAAAAAAAgktgJAAAAAAAARBI7AQAAAAAAgEhiJwAAAAAAABBJ7AQAAAAAAAAiiZ0AAAAAAABAJLETAAAAAAAAiCR2AgAAAAAAAJHETgAAAAAAACCS2AkAAAAAAABEEjsBAAAAAACASGInAAAAAAAAEEnsBAAAAAAAACKJnQAAAAAAAEAksRMAAAAAAACIJHYCAAAAAAAAkcROAAAAAAAAIJLYCQAAAAAAAEQSOwEAAAAAAIBIYicAAAAAAAAQSewEAAAAAAAAIomdAAAAAAAAQCSxEwAAAAAAAIgkdgIAAAAAAACRxE4AAAAAAAAgktgJAAAAAAAARBI7AQAAAAAAgEhiJwAAAAAAABBJ7AQAAAAAAAAiiZ0AAAAAAABAJLETAAAAAAAAiCR2AgAAAAAAAJHETgAAAAAAACCS2AkAAAAAAABEEjsBAAAAAACASGInAAAAAAAAEEnsBAAAAAAAACKJnQAAAAAAAEAksRMAAAAAAACIJHYCAAAAAAAAkcROAAAAAAAAIJLYCQAAAAAAAEQSOwEAAAAAAIBIYicAAAAAAAAQSewEAAAAAAAAIomdAAAAAAAAQCSxEwAAAAAAAIgkdgIAAAAAAACRxE4AAAAAAAAgktgJAAAAAAAARBI7AQAAAAAAgEhiJwAAAAAAABBJ7AQAAAAAAAAiiZ0AAAAAAABAJLETAAAAAAAAiCR2AgAAAAAAAJHETgAAAAAAACCS2AkAAAAAAABEEjsBAAAAAACASGInAAAAAAAAEEnsBAAAAAAAACKJnQAAAAAAAEAksRMAAAAAAACIJHYCAAAAAAAAkcROAAAAAAAAIJLYCQAAAAAAAEQSOwEAAAAAAIBIYicAAAAAAAAQSewEAAAAAAAAIomdAAAAAAAAQCSxEwAAAAAAAIgkdgIAAAAAAACRxE4AAAAAAAAgktgJAAAAAAAARBI7AQAAAAAAgEhiJwAAAAAAABBJ7AQAAAAAAAAiiZ0AAAAAAABAJLETAAAAAAAAiCR2AgAAAAAAAJHETgAAAAAAACCS2AkAAAAAAABEEjsBAAAAAACASGInAAAAAAAAEEnsBAAAAAAAACKJnQAAAAAAAEAksRMAAAAAAACIJHYCAAAAAAAAkcROAAAAAAAAIJLYCQAAAAAAAEQSOwEAAAAAAIBIYicAAAAAAAAQSewEAAAAAAAAIomdAAAAAAAAQCSxEwAAAAAAAIgkdgIAAAAAAACRxE4AAAAAAAAgktgJAAAAAAAARBI7AQAAAAAAgEhiJwAAAAAAABBJ7AQAAAAAAAAiiZ0AAAAAAABAJLETAAAAAAAAiCR2AgAAAAAAAJHETgAAAAAAACCS2AkAAAAAAABEEjsBAAAAAACASGInAAAAAAAAEEnsBAAAAAAAACKJnQAAAAAAAEAksRMAAAAAAACIJHYCAAAAAAAAkcROAAAAAAAAIJLYCQAAAAAAAEQSOwEAAAAAAIBIYicAAAAAAAAQSewEAAAAAAAAIomdAAAAAAAAQCSxEwAAAAAAAIgkdgIAAAAAAACRxE4AAAAAAAAgktgJAAAAAAAARBI7AQAAAAAAgEhiJwAAAAAAABBJ7AQAAAAAAAAiiZ0AAAAAAABAJLETAAAAAAAAiCR2AgAAAAAAAJHETgAAAAAAACCS2AkAAAAAAABEEjsBAAAAAACASGInAAAAAAAAEEnsBAAAAAAAACKJnQAAAAAAAEAksRMAAAAAAACIJHYCAAAAAAAAkcROAAAAAAAAIJLYCQAAAAAAAEQSOwEAAAAAAIBIYicAAAAAAAAQSewEAAAAAAAAIomdAAAAAAAAQCSxEwAAAAAAAIgkdgIAAAAAAACRxE4AAAAAAAAgktgJAAAAAAAARBI7AQAAAAAAgEhiJwAAAAAAABBJ7AQAAAAAAAAiiZ0AAAAAAABAJLETAAAAAAAAiCR2AgAAAAAAAJHETgAAAAAAACCS2AkAAAAAAABEEjsBAAAAAACASGInAAAAAAAAEEnsBAAAAAAAACKJnQAAAAAAAEAksRMAAAAAAACIJHYCAAAAAAAAkcROAAAAAAAAIJLYCQAAAAAAAEQSOwEAAAAAAIBIYicAAAAAAAAQSewEAAAAAAAAIomdAAAAAAAAQCSxEwAAAAAAAIgkdgIAAAAAAACRxE4AAAAAAAAgktgJAAAAAAAARBI7AQAAAAAAgEhiJwAAAAAAABBJ7AQAAAAAAAAiiZ0AAAAAAABAJLETAAAAAAAAiCR2AgAAAAAAAJHETgAAAAAAACCS2AkAAAAAAABEEjsBAAAAAACASGInAAAAAAAAEEnsBAAAAAAAACKJnQAAAAAAAEAksRMAAAAAAACIJHYCAAAAAAAAkcROAAAAAAAAIJLYCQAAAAAAAEQSOwEAAAAAAIBIYicAAAAAAAAQSewEAAAAAAAAIomdAAAAAAAAQCSxEwAAAAAAAIgkdgIAAAAAAACRxE4AAAAAAAAgktgJAAAAAAAARBI7AQAAAAAAgEhiJwAAAAAAABBJ7AQAAAAAAAAiiZ0AAAAAAABAJLETAAAAAAAAiCR2AgAAAAAAAJHETgAAAAAAACCS2AkAAAAAAABEEjsBAAAAAGB/7j17gNWJnQAAAAAAsD9iJ8DqHsROAAAAAAAAINFtFzsffOsAVubNOwAAAAAA2JMudt56+AArEzsBAAAAAGBPHGMLAAAAAAD7c+3ZA6zs3jG2AOsx2QkAAAAAAHtQa73/UGt1jC3AirqF1LMDAAAAYA32lwBWMykzx9hOPESApY09MgAAAADW4WV6gJU9DnROY6fpToDl+YMoAAAAAJvgpXqA5T1e1TmNnTbsAZbnRREAAAAANsEePcDyTHYCrMkfQgEAAADYhGtPEWBpYifAmqydAAAAAGyCl+oBlid2Aqyj1uqNOwAAAAA2wR49wHImtdbHF0UeY2ettbvA885DBFiYNRMAAACAjai1drFz4mkCLOz3SyIfZv4Lb44ALM6aCQAAAMAm2W8CWNzvkxdnY6fjGAEWZ80EAAAAYJPsNwEsTuwEWJM1EwAAAIBN+ulpAiym1voydrZLPMeeIcC77qYXHwMAAADAJri3E2BhV7P/4odn/5U3RwDeZ6oTAAAAgG2wRw/wvid79GInwPIuPDMAAAAAtsBL9gDve9Izn8TOdr6tMXmA+cbtSBEAAAAA2DQDSQBve3HN3PPJzmIxBXiTNRIAAACArai1Pjy/iw6AJ16cvPha7HQ8I8B81kgAAAAAtsnL9gDzvVgjX8TOdpTt2EMEeMERtgAAAABsVa31wnVzAK+6eX6EbZkz2VlMLgG86txjAQAAAGAHTHcCvPRqvxQ7ARZnbQQAAABgF7x0D/DUpE2+v/Bq7GwjoJceIsBvl+2CeAAAAADYqnaV0o2nDPDb3GGkeZOdxQQTwBPepgMAAABgl+xHAfwxd02cGztrrdfeHAF4dNPepgMAAACAnai1dvd2jj1tgMeTF+/nPYa3Jjs73zw/AGshAAAAAHthXwrgnbXwzdhpuhPgcarz2mMAAAAAYNdqrRemO4ED9+ZUZ1lgsrN4cwQ4cNZAAAAAAPbJ/hRwyN5dA9+NnaY7gQNmqhMAAACAvTLdCRywd6c6y4KTnZ0vfpKAA2TtAwAAAKAPznwXgAMzWXSyfaHYWWu97eqpnyLggFy2tQ8AAAAA9soJjMABOl9kqrMsMdlZ2oTTxE8TcAAmpjoBAAAA6BnTncCh6I7uPl/0a104dtZaH1yEDByIL23NAwAAAIBeaBNO3303gANwtswe/TKTnd1iem5UHhi4m3bpOwAAAAD0Sq21G0i6810BBuyqHd29sKViZ3PmOFtgoCaOAwEAAACg5+xfAUO10h790rGzjco7zhYYoi+LXngMAAAAAPtQa711nC0wUEsdXzu1ymTn9DjbKz9JwIBcOb4WAAAAgASOswUG6Eet9ecqX9ZKsbPpxkjHfpqAARg7/gMAAACAMKeunAMG4q7W+mXVL2Xl2NnGSE/9FAEDcLrKaDwAAAAA7Eu7jskL/EC6ybq9cZ3JzunZ4J/9GAHBPre1DAAAAACitCMf3d8JJDtrL2+sbK3YWX4tpt0dd5d+jIBAP9zTCQAAAECydn+nPXog0ddV7+mctXbsLL8W025U/sqPERDkcp0zwAEAAACgR7p9rjvfECBIt0d/volPdyOxszmzmAIh7tofAAEAAAAgXq31oZRyYo8eCHHVBik3YmOx02IKhOjWqJO2ZgEAAADAILT9rtNSysR3FOixuzZAuTGbnOwUPIG+EzoBAAAAGKxa633boxc8gT7ayh79RmNnETyB/hI6AQAAABi8Wuut4An00Nb26DceO4vgCfSP0AkAAADAwRA8gZ7Z6h79VmJnETyB/hA6AQAAADg4LXge2aMH9uxq23v0W4ud5WnwvNrmxwGYY+uLKAAAAAD0laEkYM8ua62n296j32rsLG0x7b6Q7gva9scCmPFjF4soAAAAAPRZ26M/tkcP7NjXWuvZLj7k1mPnVPuCPu/q4wEH7XOt9cuhPwQAAAAAmGp79F89EGDLuruC/1trPd/Vg95Z7Cy/FtOLUsrfpZTxLj8ucDC6teXvttYAAAAAADNafPjUYgTApt21q+V+7vLJ7jR2lj+XIh+7xxPYsG5NOW5rDAAAAADwilrrdSnlqJRy4/kAG3TZQufO9+h3HjvL03s8v3qDBFjTpJ397X5OAAAAAFhA26M/KaV897yANU2PrT3b1x79XmLnVBuZP/YGCbCimzbNubOzvwEAAABgKGqt39rVc3e+qcAKuhMXj3Z9bO1ze42d5ddiet/eIDHlCSxqOs3ZjcTfe2oAAAAAsJruyMla63Gb8rRHDyxiOs3ZixMX9x47p9pk1lE70xdgnsv2pohpTgAAAADYkDbledwmtQDm+d6Hac5ZvYmd5c854WdtbN7RtsCsbk34e5/nfgMAAADAkLWTGE9LKZ/s0QPPdC9CfOxejOjbHn2vYudUG5s/saACbQ341I6svfVAAAAAAGC7aq3XbY/+cyll7HHDQZvu0Z/29Vq5XsbOqZkFVfSEwzMbOa99/wEAAABgt2qtF7XWoxY97zx+OCgxe/S9jp1Tz6KnOz1h2C5FTgAAAADojxY9j9sevTs9Ydgu23G1MXv0EbFzqkXP7k7Pj+0CVOPzMAzj9nv6Y7uTU+QEAAAAgJ5pe/Sn9uhhcLrfy19LKf9qe/S9PK52nlGttZ+f2YJGo1E38dkF0G6B/WfEJw10JqWUn6WUc3dx8prRaPStlPI/DwcAAAB64ZMX1HnNaDQ6bfvz9ughy7jt0V+k79H/owefw1ra/2Af/yfbwud0Uf137lcFg3XXfr/+9IdjAAAAAMhXa/3Zgsk0fJ7Yo4femu7RxwfOWfGTnfOMRqOjtqh2v7qzxP/Tz88UBq1bOG/b4nmdNvrOfpnsBAAAgF4x2clSnu3Rn4ifsBfTuHnbhpAehvhtGGzsfG40Gv3Vouf011H7q7F6WN+kLZb37a+Pv4a6cLIbYicAAAD0itjJWmb26E/a/rw9etic8cz+/H3bnz+YNTv+GNtFtejy+8jbWaPRqFtQ/2r/aPbvgZce2oLZeXDfJgAAAADwniX26E88THjT7B79vRMVDyh2vuVZrPF2EgAAAAAA7Ig9emAdHzw9AAAAAAAAIJHYCQAAAAAAAEQSOwEAAAAAAIBIYicAAAAAAAAQSewEAAAAAAAAIomdAAAAAAAAQCSxEwAAAAAAAIgkdgIAAAAAAACRxE4AAAAAAAAgktgJAAAAAAAARBI7AQAAAAAAgEhiJwAAAAAAABBJ7AQAAAAAAAAiiZ0AAAAAAABAJLETAAAAAAAAiCR2AgAAAAAAAJHETgAAAAAAACCS2AkAAAAAAABEEjsBAAAAAACASGInAAAAAAAAEEnsBAAAAAAAACKJnQAAAAAAAEAksRMAAAAAAACIJHYCAAAAAAAAkcROAAAAAAAAIJLYCQAAAAAAAEQSOwEAAAAAAIBIYicAAAAAAAAQSewEAAAAAAAAIomdAAAAAAAAQCSxEwAAAAAAAIgkdgIAAAAAAACRxE4AAAAAAAAgktgJAAAAAAAARBI7AQAAAAAAgEhiJwAAAAAAABBJ7AQAAAAAAAAiiZ0AAAAAAABAJLETAAAAAAAAiCR2AgAAAAAAAJHETgAAAAAAACCS2AkAAAAAAABEEjsBAAAAAACASGInAAAAAAAAEEnsBAAAAAAAACKJnQAAAAAAAEAksRMAAAAAAACIJHYCAAAAAAAAkcROAAAAAAAAIJLYCQAAAAAAAEQSOwEAAAAAAIBIYicAAAAAAAAQSewEAAAAAAAAIomdAAAAAAAAQCSxEwAAAAAAAIgkdgIAAAAAAACRxE4AAAAAAAAgktgJAAAAAAAARBI7AQAAAAAAgEhiJwAAAAAAABBJ7AQAAAAAAAAiiZ0AAAAAAABAJLETAAAAAAAAiCR2AgAAAAAAAJHETgAAAAAAACCS2AkAAAAAAABEEjsBAAAAAACASGInAAAAAAAAEEnsBAAAAAAAACKJnQAAAAAAAEAksRMAAAAAAACIJHYCAAAAAAAAkcROAAAAAAAAIJLYCQAAAAAAAEQSOwEAAAAAAIBIYicAAAAAAAAQSewEAAAAAAAAIomdAAAAAAAAQCSxEwAAAAAAAIgkdgIAAAAAAACRxE4AAAAAAAAgktgJAAAAAAAARBI7AQAAAAAAgEhiJwAAAAAAABBJ7AQAAAAAAAAiiZ0AAAAAAABAJLETAAAAAAAAiCR2AgAAAAAAAJHETgAAAAAAACCS2AkAAAAAAABEEjsBAAAAAACASGInAAAAAAAAEEnsBAAAAAAAACKJnQAAAAAAAEAksRMAAAAAAACIJHYCAAAAAAAAkcROAAAAAAAAIJLYCQAAAAAAAEQSOwEAAAAAAIBIYicAAAAAAAAQSewEAAAAAAAAIomdAAAAAAAAQCSxEwAAAAAAAIgkdgIAAAAAAACRxE4AAAAAAAAgktgJAAAAAAAARBI7AQAAAAAAgEhiJwAAAAAAABBJ7AQAAAAAAAAiiZ0AAAAAAABAJLETAAAAAAAAiCR2AgAAAAAAAJHETgAAAAAAACCS2AkAAAAAAABEEjsBAAAAAACASGInAAAAAAAAEEnsBAAAAAAAACKJnQAAAAAAAEAksRMAAAAAAACIJHYCAAAAAAAAkcROAAAAAAAAIJLYCQAAAAAAAEQSOwEAAAAAAIBIYicAAAAAAAAQSewEAAAAAAAAIomdAAAAAAAAQCSxEwAAAAAAAIgkdgIAAAAAAACRxE4AAAAAAAAgktgJAAAAAAAARBI7AQAAAAAAgEhiJwAAAAAAABBJ7AQAAAAAAAAiiZ0AAAAAAABAJLETAAAAAAAAiCR2AgAAAAAAAJHETgAAAAAAACCS2AkAAAAAAABEEjsBAAAAAACASGInAAAAAAAAEEnsBAAAAAAAACKJnQAAAAAAAEAksRMAAAAAAACIJHYCAAAAAAAAkcROAAAAAAAAIJLYCQAAAAAAAEQSOwEAAAAAAIBIYicAAAAAAAAQSewEAAAAAAAAIomdAAAAAAAAQCSxEwAAAAAAAIgkdgIAAAAAAACRxE4AAAAAAAAgktgJAAAAAAAARBI7AQAAAAAAgEhiJwAAAAAAABBJ7AQAAAAAAAAiiZ0AAAAAAABAJLETAAAAAAAAiCR2AgAAAAAAAJHETgAAAAAAACCS2AkAAAAAAABEEjsBAAAAAACASGInAAAAAAAAEEnsBAAAAAAAACKJnQAAAAAAAEAksRMAAAAAAACIJHYCAAAAAAAAkcROAAAAAAAAIJLYCQAAAAAAAEQSOwEAAAAAAIBIYicAAAAAAAAQSewEAAAAAAAAIomdAAAAAAAAQCSxEwAAAAAAAIgkdgIAAAAAAACRxE4AAAAAAAAgktgJAAAAAAAARBI7AQAAAAAAgEhiJwAAAAAAABBJ7AQAAAAAAAAiiZ0AAAAAAABAJLETAAAAAAAAiCR2AgAAAAAAAJHETgAAAAAAACCS2AkAAAAAAABEEjsBAAAAAACASGInAAAAAAAAIxS4/QAABQZJREFUEEnsBAAAAAAAACKJnQAAAAAAAEAksRMAAAAAAACIJHYCAAAAAAAAkcROAAAAAAAAIJLYCQAAAAAAAEQSOwEAAAAAAIBIYicAAAAAAAAQSewEAAAAAAAAIomdAAAAAAAAQCSxEwAAAAAAAIgkdgIAAAAAAACRxE4AAAAAAAAgktgJAAAAAAAARBI7AQAAAAAAgEhiJwAAAAAAABBJ7AQAAAAAAAAiiZ0AAAAAAABAJLETAAAAAAAAiCR2AgAAAAAAAJHETgAAAAAAACCS2AkAAAAAAABEEjsBAAAAAACASGInAAAAAAAAEEnsBAAAAAAAACKJnQAAAAAAAEAksRMAAAAAAACIJHYCAAAAAAAAkcROAAAAAAAAIJLYCQAAAAAAAEQSOwEAAAAAAIBIYicAAAAAAAAQSewEAAAAAAAAIomdAAAAAAAAQCSxEwAAAP7f3h0dRRFEUQB9LwLIwDUCNwM3BEJYM4AMCAEzwAwwA4gAiMAlA4jgWV01H2oplopM98w5VZ1A34+prjuvGwAAgCEpOwEAAAAAAIAhKTsBAAAAAACAISk7AQAAAAAAgCEpOwEAAAAAAIAhKTsBAAAAAACAISk7AQAAAAAAgCEpOwEAAAAAAIAhKTsBAAAAAACAISk7AejVQTIAAAAAADxH2QlAr5SdAAAAAAA8S9kJAAAAAMDvPNohAHqUVSUYALqTmZuI+CIZAAAAmF9VpRgA6JGyE4BuZaaPFAAAAMzvqaqO5QBAj1xjC0DP7qUDAAAAs7sTAQC9UnYC0DOHKQAAAJjftQwA6JWyE4CeKTsBAABgfs7nAHRL2QlAz/w5CgAAAPNzPgegW8pOALpVVe3P0QcJAQAAwGzuq+rR9gPQK2UnAL27khAAAADM5tLWA9CzrCoBAdCtzNxGxK2EAAAAYBZvq+pg6wHolclOALrmKlsAAACYzY2iE4DeKTsBGMGFlAAAAODVucIWgO65xhaA7mXmcUS0P0mPpAUAAACv4qGqNrYagN6Z7ASge1X1aLoTAAAAXtW57QZgBCY7ARiC6U4AAAB4NaY6ARiGyU4AhjBNd55KCwAAAP67vS0GYBQmOwEYSmZeR8R7qQEAAMB/8bmqTmwtAKNQdgIwlMzcRsSt1AAAAODFPUXEZrpdCQCG4BpbAIZSVXcRcSY1AAAAeHF7RScAo1F2AjCcqrpo1+pIDgAAAF7Mx6q6sp0AjMY1tgAMKTOPI6K93/lOggAAAPBPbqpqZwsBGJGyE4BhTYXnISKOpAgAAAB/5T4idq6vBWBUrrEFYFjTQaz9efokRQAAAPhjik4AhqfsBGBoVXWn8AQAAIA/pugEYBGUnQAMbyo8N9NBDQAAAHieohOAxVB2ArAI31xp+1miAAAA8Eufqmqr6ARgKZSdACxGO6hV1UlEnEkVAAAAvtOef/lQVXvbAsCSZFUJFIDFycxtRFxGxDvpAgAAsHI3EbGvqsPaNwKA5THZCcAitXc827U805Tnk5QBAABYoYdpmnOn6ARgqUx2ArB4mXkcEafTOpI4AAAAC9d++r1oy9ucACydshOA1ZhKz/1Uer6RPAAAAAvTJjnPI+JKyQnAWig7AVilzNxNxeeJaU8AAAAG1grOq4i4bE+6CBKAtVF2ArB6mdne9txNa2vqEwAAgI61crOVmtdtKTgBWDtlJwD8xDT52WymBQAAAHM4TOtRsQkAP4iIr4pQKPyWoeJkAAAAAElFTkSuQmCC;" vertex="1" parent="1">
                    <mxGeometry x="40" y="90" width="58.55" height="80" as="geometry"/>
                </mxCell>
                <mxCell id="141" style="edgeStyle=none;html=1;exitX=0.5;exitY=1;exitDx=0;exitDy=0;entryX=0.5;entryY=0;entryDx=0;entryDy=0;endArrow=none;endFill=0;strokeWidth=3;" edge="1" parent="1" source="138" target="139">
                    <mxGeometry relative="1" as="geometry"/>
                </mxCell>
                <mxCell id="138" value="プレゼンテーション" style="rounded=0;whiteSpace=wrap;html=1;" vertex="1" parent="1">
                    <mxGeometry x="180" y="50" width="120" height="40" as="geometry"/>
                </mxCell>
                <mxCell id="142" style="edgeStyle=none;html=1;exitX=0.5;exitY=1;exitDx=0;exitDy=0;entryX=0.5;entryY=0;entryDx=0;entryDy=0;endArrow=none;endFill=0;strokeWidth=3;" edge="1" parent="1" source="139" target="140">
                    <mxGeometry relative="1" as="geometry"/>
                </mxCell>
                <mxCell id="139" value="インタラクション" style="rounded=0;whiteSpace=wrap;html=1;" vertex="1" parent="1">
                    <mxGeometry x="180" y="110" width="120" height="40" as="geometry"/>
                </mxCell>
                <mxCell id="140" value="モデル" style="rounded=0;whiteSpace=wrap;html=1;" vertex="1" parent="1">
                    <mxGeometry x="180" y="170" width="120" height="40" as="geometry"/>
                </mxCell>
                <mxCell id="147" value="スタイルやレイアウト（ルック）" style="text;html=1;strokeColor=none;fillColor=none;align=left;verticalAlign=middle;whiteSpace=wrap;rounded=0;" vertex="1" parent="1">
                    <mxGeometry x="340" y="55" width="200" height="30" as="geometry"/>
                </mxCell>
                <mxCell id="148" value="構造と機能（フィール）" style="text;html=1;strokeColor=none;fillColor=none;align=left;verticalAlign=middle;whiteSpace=wrap;rounded=0;" vertex="1" parent="1">
                    <mxGeometry x="340" y="115" width="200" height="30" as="geometry"/>
                </mxCell>
                <mxCell id="149" value="ユーザの関心対象の模式" style="text;html=1;strokeColor=none;fillColor=none;align=left;verticalAlign=middle;whiteSpace=wrap;rounded=0;" vertex="1" parent="1">
                    <mxGeometry x="340" y="175" width="200" height="30" as="geometry"/>
                </mxCell>
            </root>
        </mxGraphModel>
    </diagram>
</mxfile>